<svg width="1399" height="1199" viewBox="0 0 1399 1199" fill="none" xmlns="http://www.w3.org/2000/svg">
<path opacity="0.4" d="M619.05 755.557C637.083 830.693 672.644 904.093 721.993 968.262C723.51 970.31 725.203 972.348 726.895 974.386C775.01 1035.18 836.305 1088.58 904.505 1129.19L905.649 1127.49C835.448 1085.68 772.645 1030.4 723.875 967.182C674.719 903.33 639.166 830.093 621.325 755.274C599.904 665.917 606.703 580.48 639.637 512.98C647.253 513.726 654.868 514.473 662.659 515.21C633.852 584.129 630.751 669.536 656.038 758.69C676.823 832.537 713.049 901.812 761.348 962.764C812.866 1027.96 878.33 1083.6 953.802 1125.13L954.938 1123.27C809.444 1043.36 701.335 910.279 658.297 758.081C633.203 669.244 636.312 584 665.136 515.407C738.778 522.019 813.244 524.17 883.316 502.991C920.782 491.701 955.788 473.832 986.472 450.791C991.915 447.069 997.358 443.348 1002.61 439.31C1008.06 435.752 1013.33 432.04 1018.58 428.002C1024.2 424.434 1029.46 420.559 1034.72 416.684C1040.35 413.117 1045.62 409.405 1050.87 405.366C1056.5 401.799 1062.11 397.906 1067.36 394.03C1072.99 390.463 1078.43 386.742 1083.69 382.867C1089.32 379.3 1094.94 375.569 1100.37 371.685L1100.54 371.512C1104.98 368.825 1109.24 365.984 1113.32 363.153C1114.51 362.273 1115.69 361.392 1117.06 360.503C1120.12 358.542 1123.37 356.572 1126.44 354.612C1128.99 352.842 1131.71 351.063 1134.26 349.293C1135.97 348.222 1137.67 347.151 1139.56 346.071C1143.65 343.402 1147.73 340.734 1151.81 337.902C1151.98 337.729 1152.33 337.711 1152.5 337.539C1158.31 334.125 1163.93 330.395 1169.72 326.655C1175.88 323.06 1182.03 319.302 1187.99 315.39C1193.12 312.503 1198.42 309.444 1203.37 306.403C1204.39 305.695 1205.42 305.151 1206.44 304.443C1209.53 302.808 1212.78 301.002 1215.87 299.367C1219.12 297.561 1222.36 295.591 1225.43 293.63C1226.29 293.095 1227.32 292.713 1228.18 292.178C1233.49 289.445 1238.8 286.549 1244.11 283.489C1250.65 280.529 1257.17 277.242 1263.51 273.801C1304.69 256.099 1342.1 230.251 1369.79 200.494C1403.13 164.387 1421.43 123.506 1422.44 82.2214L1420.14 82.178C1418.93 122.982 1400.96 163.355 1367.95 199.117C1345.61 223.358 1316.62 245.002 1284.36 261.582C1307.73 246.777 1329.35 229.119 1348.22 209.314C1387.33 168.814 1412.36 122.017 1419.02 77.4921L1416.72 77.2855C1410.21 121.312 1385.33 167.61 1346.57 207.928C1322.85 232.732 1294.72 254.167 1264.42 270.972C1290.29 253.581 1314.72 232.34 1336.37 208.299C1374.51 166.214 1403.29 116.93 1415.43 72.9352L1413.29 72.3931C1401.13 116.061 1372.52 165.173 1334.71 206.913C1310.22 233.884 1282.55 257.259 1253.21 275.649C1252.87 275.831 1252.52 276.013 1252.17 276.031C1251.65 276.222 1251.14 276.413 1250.62 276.603C1276.4 257.582 1301.26 234.354 1324.49 206.958C1361.36 164.122 1393.24 113.53 1412 68.0428L1410.03 67.3282C1391.41 112.153 1359.52 162.582 1323 205.4C1297.92 234.529 1271.37 259.154 1243.68 278.767C1242.13 279.339 1240.4 279.921 1238.84 280.493C1263.86 260.366 1288.28 235.525 1312.61 205.454C1357.15 151.089 1391.81 92.8256 1408.39 62.9964L1406.58 62.1094C1390 91.9387 1355.34 150.039 1310.97 204.394C1285.3 235.845 1259.7 261.566 1233.47 282.247C1231.4 283.01 1229.49 283.601 1227.41 284.201C1251.49 262.978 1275.31 236.859 1300.57 204.285C1326.48 171.022 1351.7 134.522 1373.81 102.44C1384.79 86.6488 1395.1 71.5467 1404.61 58.1223L1403.15 57.217C1393.46 70.6506 1383.15 85.5895 1372.18 101.544C1350.07 133.626 1324.85 170.125 1298.93 203.389C1272.69 237.16 1248.02 263.978 1223.07 285.573C1220.82 286.346 1218.56 286.955 1216.31 287.727C1244.5 260.726 1268.12 230.692 1288.54 203.443C1301.06 186.752 1313.53 169.246 1325.68 152.248C1352.29 115.349 1377.24 80.4996 1401.02 53.5654L1399.73 52.4877C1376.3 79.4035 1351.35 114.253 1324.75 151.315C1312.6 168.313 1299.94 185.666 1287.61 202.51C1266.71 230.602 1242.25 261.498 1213.2 288.872C1210.78 289.654 1208.34 290.272 1206.08 290.881C1233.49 262.448 1256.68 230.964 1277.21 202.4C1282.31 195.425 1287.22 188.296 1292.31 181.157C1326.93 132.385 1362.7 82.0798 1398.14 48.9716L1397.03 47.8847C1361.59 81.156 1325.65 131.634 1291.03 180.406C1285.94 187.544 1280.86 194.683 1275.94 201.649C1255.09 230.883 1231.23 263.058 1203.14 291.854C1200.53 292.481 1198.1 293.263 1195.49 293.89C1220.3 266.248 1242.45 235.145 1265.53 201.377C1304.5 144.85 1348.55 81.0216 1394.72 44.2424L1393.78 43.1462C1347.43 79.9347 1303.23 144.099 1264.25 200.625C1240.68 234.911 1218.37 266.513 1192.88 294.518C1190.1 295.155 1187.32 295.955 1184.54 296.592C1209.57 266.647 1231.46 233.758 1252.85 201.55L1253.67 200.362C1328.96 87.1204 1364.25 57.9467 1391.3 39.5131L1390.54 38.4077C1366.7 54.2189 1342.72 77.4002 1316.9 109.186C1293.73 137.724 1272.13 169.289 1252.2 199.293L1251.38 200.482C1229.84 233.189 1207.63 266.585 1182.08 296.721C1179.29 297.358 1176.33 298.004 1173.54 298.64C1195.84 270.148 1215.55 239.501 1234.76 209.37L1241.43 198.876C1313.12 87.4596 1355.37 53.1765 1387.51 34.3127L1386.74 33.2073C1360.59 48.6487 1334.51 71.9406 1307.31 104.453C1281.28 135.595 1257.76 170.86 1240.34 198.115L1233.66 208.609C1214.12 239.085 1194.25 270.231 1171.62 298.905C1168.66 299.551 1165.7 300.197 1162.73 300.843C1182.8 273.613 1200.67 244.698 1218.21 216.291C1222.11 210.033 1225.84 203.947 1229.74 197.689C1267.6 136.803 1319.39 62.5885 1384.25 29.411L1383.68 28.4596C1354.67 43.2325 1326.65 66.6256 1298.1 100.027C1276.34 125.383 1254.35 156.15 1228.83 197.082C1224.93 203.341 1221.2 209.426 1217.3 215.685C1199.6 244.427 1181.58 273.84 1161.17 301.252C1158.21 301.898 1155.06 302.39 1152.1 303.036C1170.3 277.05 1186.65 249.523 1202.5 222.514C1207.52 214.07 1212.7 205.291 1217.88 196.674C1291.15 75.0309 1345.88 40.2572 1380.83 24.6817L1380.43 23.7211C1348.75 37.8163 1318.8 61.3107 1288.69 95.4479C1265.24 121.874 1242.6 153.821 1217.15 196.058C1211.96 204.675 1206.78 213.454 1201.76 221.898C1185.57 249.089 1169.23 276.942 1150.7 303.273C1147.57 303.929 1144.42 304.421 1141.28 304.913C1157.76 279.834 1172.77 253.686 1187.45 227.884C1193.59 217.254 1199.88 206.126 1206.02 195.496C1241.44 135.065 1297.66 51.2927 1377.23 19.7985L1376.84 19.0011C1296.91 50.5137 1240.53 134.622 1205.11 195.053C1198.81 205.855 1192.51 216.82 1186.55 227.44C1171.7 253.415 1156.7 279.889 1139.88 305.15C1136.73 305.642 1133.6 306.297 1130.27 306.798C1145.39 282.609 1159.24 257.668 1172.74 232.909C1179.65 220.275 1186.89 207.134 1194.15 194.318C1219.32 150.132 1244.26 114.956 1270.1 86.9327C1302.61 51.6875 1337.46 27.4457 1373.8 14.906L1373.61 14.5889C1337.28 27.2918 1302.25 51.5428 1269.56 86.7971C1243.55 114.83 1218.61 150.006 1193.45 194.355C1186.19 207.17 1178.94 220.149 1172.04 232.946C1158.36 257.714 1144.53 282.981 1129.25 307.343C1125.92 307.844 1122.79 308.5 1119.47 309.001C1133.4 285.692 1146.05 261.631 1158.56 238.069C1166.25 223.432 1174.28 208.449 1182.32 193.793C1238.66 92.1799 1300.19 32.3442 1370.41 10.6662L1370.19 9.85961C1299.79 31.5468 1238.1 91.5549 1181.59 193.341C1173.55 207.997 1165.52 222.979 1157.83 237.617C1145.16 261.351 1132.51 285.575 1118.41 309.056C1115.09 309.557 1111.77 310.059 1108.45 310.56C1121.19 288.131 1133.02 265.096 1144.52 242.405C1152.82 225.936 1161.45 209.122 1170.45 192.615C1196 145.464 1222.4 108.085 1250.97 78.2819C1286.39 41.4117 1325.47 17.112 1366.98 5.77378L1366.77 5.13031C1325.08 16.4778 1286.01 40.9406 1250.42 77.82C1221.68 107.632 1195.27 145.012 1169.73 192.326C1160.9 208.66 1152.27 225.637 1143.8 242.115C1132.14 264.979 1120.31 288.177 1107.4 310.778C1104.08 311.28 1100.58 311.79 1097.26 312.292C1108.99 290.571 1119.99 268.56 1130.82 246.559C1139.73 228.421 1148.98 209.775 1158.59 191.601C1184.24 142.972 1211.46 104.404 1241.4 73.8749C1278.37 36.2691 1319.54 11.6958 1363.56 1.04448L1363.53 0.391812C1319.33 11.0524 1278.16 35.6257 1241.02 73.4038C1210.92 104.105 1183.87 142.664 1158.05 191.302C1148.42 209.313 1139.19 228.122 1130.27 246.26C1119.44 268.261 1108.45 290.435 1096.56 312.328C1077.49 314.964 1058.41 317.273 1039.68 319.727C1018.32 322.319 996.271 325.111 974.761 328.201C934.896 334.054 886.031 342.996 838.305 360.222C826.15 363.641 814.549 367.521 803.307 371.546C793.763 374.337 784.579 377.273 775.763 380.516C763.609 383.935 751.999 387.652 740.941 391.831C731.397 394.622 722.213 397.557 713.388 400.637C702.623 403.656 692.05 406.992 682.013 410.463C670.895 413.499 660.147 416.844 649.767 420.497C639.344 423.334 629.29 426.479 619.595 429.768C608.302 432.814 597.369 436.005 586.814 439.667C575.864 442.532 565.107 445.713 554.726 449.366C543.601 452.24 532.844 455.421 522.455 458.911C511.329 461.784 500.388 464.812 489.823 468.311C478.346 471.203 467.229 474.24 456.489 477.748C445.179 480.468 434.062 483.504 423.138 486.858C411.819 489.415 400.702 492.452 389.954 495.797C378.108 498.381 366.464 501.445 355.188 504.818C343.342 507.402 331.857 510.131 320.572 513.34C293.551 518.847 267.845 525.92 243.639 534.715C197.645 551.36 154.328 575.392 118.664 604.257C80.2999 635.392 50.8108 671.133 31.2167 710.773C12.8914 747.729 2.74665 789.492 0.705518 834.594C-1.21508 875.271 3.67809 918.209 15.1409 962.112C36.9486 1045.4 78.5478 1123.06 118.78 1198.18L119.299 1197.99C79.0663 1122.87 37.4672 1045.2 15.6595 961.921C4.20523 918.182 -0.687953 875.243 1.23265 834.566C3.27378 789.465 13.6028 747.855 31.7609 711.072C51.3636 671.595 80.6684 635.699 119.041 604.728C154.705 575.863 197.846 551.841 243.841 535.196C265.972 527.164 289.411 520.536 313.797 515.168C311.195 515.959 308.594 516.749 305.992 517.54C293.688 521.457 281.576 525.692 270.018 530.388C176.669 568.003 103.168 634.684 68.1794 713.417C51.6283 750.607 42.8721 791.97 42.0353 836.518C41.3447 877.131 47.0822 919.37 59.3808 962.411C82.029 1041.56 121.949 1114.08 167.885 1193.81L168.57 1193.44C122.635 1113.71 82.7147 1041.2 60.0751 962.212C47.785 919.334 42.0475 877.094 42.7381 836.481C43.5835 792.097 52.3397 750.734 68.7236 713.716C103.896 635.137 177.406 568.619 270.579 531.013C282.138 526.317 294.241 521.919 306.554 518.165C311.757 516.584 316.959 515.002 322.346 513.574C326.705 512.691 331.239 511.799 335.782 511.07C334.569 511.461 333.356 511.852 332.143 512.243C320.032 516.477 308.122 521.192 296.589 526.377C206.891 566.419 137.049 635.69 105.159 716.388C90.3737 753.649 83.1904 794.766 83.5494 838.596C83.9044 878.991 90.8463 920.677 103.805 962.865C129.007 1043.68 173.666 1119.22 217.174 1189.59L217.859 1189.22C174.352 1118.86 129.701 1043.48 104.675 962.656C91.5491 920.64 84.783 878.945 84.4365 838.713C84.0775 794.883 91.2694 753.929 106.055 716.668C137.945 635.97 207.62 566.872 297.15 527.002C308.516 521.989 320.418 517.111 332.529 512.877C335.298 511.914 338.066 510.951 340.843 510.151C345.729 509.24 350.623 508.493 355.518 507.745C344.469 512.088 333.446 516.919 322.967 522.05C236.736 564.364 170.721 636.052 141.946 719.041C128.926 756.373 123.14 797.254 124.879 840.521C126.456 880.688 134.25 921.838 148.221 963.155C176.161 1045.79 223.983 1121.16 266.63 1185.19L267.491 1184.82C224.845 1120.79 177.031 1045.58 149.266 962.937C135.305 921.783 127.51 880.632 125.942 840.629C124.212 797.525 130.006 756.808 143.026 719.475C171.81 636.65 237.657 565.134 323.721 522.992C334.886 517.498 346.594 512.304 358.513 507.752C358.856 507.571 359.207 507.552 359.55 507.371C364.796 506.605 370.05 506.002 375.48 505.39C366.698 509.287 357.942 513.672 349.714 518.03C266.765 562.463 204.594 636.895 179.102 722.002C167.856 759.569 163.634 800.04 166.402 842.762C169.024 882.711 177.847 923.316 192.653 963.771C222.064 1044.2 271.433 1118.84 315.927 1181.14L316.78 1180.6C272.286 1118.31 222.925 1043.83 193.699 963.553C179.077 923.252 170.254 882.646 167.465 842.87C164.53 800.32 168.752 759.849 180.006 722.446C205.507 637.501 267.519 563.406 350.116 518.991C359.374 514.088 368.815 509.339 378.634 505.061C380.91 504.779 383.186 504.496 385.47 504.376C388.8 504.038 391.954 503.709 395.292 503.534C388.769 506.821 382.263 510.434 375.933 514.038C335.762 537.577 301.246 568.183 273.398 604.983C246.052 641.267 226.676 681.714 215.554 725C197.169 797.791 204.62 882.809 236.55 964.252C268.875 1046.49 321.943 1121.1 364.689 1176.95L365.542 1176.41C322.804 1120.73 269.736 1046.12 237.42 964.043C205.498 882.763 198.065 798.072 216.459 725.444C227.405 682.166 246.789 641.883 273.968 605.771C301.649 569.143 335.989 538.547 376.169 515.171C383.176 511.041 390.376 507.228 397.585 503.577C403.199 503.12 408.989 502.653 414.788 502.349C410.339 504.872 406.074 507.55 401.81 510.228C362.761 535.017 329.728 567.017 303.723 605.357C278.537 642.509 260.969 683.843 252.016 728.162C237.003 801.43 247.055 885.657 280.464 965.06C296.355 1002.68 325.357 1061.86 396.499 1151.88C401.971 1158.79 407.619 1165.7 413.459 1172.92L414.479 1172.21C374.393 1123.43 317.1 1048.87 281.493 964.515C248.092 885.275 238.057 801.375 253.078 728.27C262.216 684.105 279.441 642.953 304.627 605.801C330.465 567.633 363.331 535.805 402.38 511.016C407.154 507.984 412.105 504.943 417.239 502.057C423.037 501.753 429.011 501.44 434.994 501.29C432.611 502.887 430.395 504.312 428.188 505.9C390.262 531.94 358.712 565.335 334.549 605.214C311.355 643.407 295.948 685.61 288.803 730.815C276.987 804.571 289.808 887.834 324.696 965.196C347.21 1014.9 377.992 1064.34 420.258 1117.75C433.28 1134.25 447.373 1151.02 462.731 1168.37L463.751 1167.66C398.936 1094.16 355.21 1029.7 325.909 964.805C291.029 887.606 278.393 804.497 290.05 731.077C297.212 686.198 312.62 643.995 335.646 605.975C359.817 566.258 391.025 533.045 428.951 507.006C431.668 505.064 434.561 503.112 437.463 501.324C443.445 501.174 449.604 501.015 455.762 500.856C455.428 501.2 454.909 501.391 454.575 501.736C382.331 555.425 336.435 637.839 325.598 733.631C317.147 807.702 332.569 890.174 368.944 965.658C389.308 1007.95 416.375 1050.38 450.899 1093.89C469.2 1116.98 489.45 1140.3 512.019 1164.15L513.031 1163.28C448.113 1094.53 401.55 1029.72 370.324 965.095C333.957 889.774 318.728 807.619 327.012 733.721C337.867 638.255 383.436 556.349 455.513 502.832C456.358 502.133 457.386 501.589 458.231 500.89C464.397 500.894 470.564 500.898 476.907 500.893C409.535 556.781 368.98 640.224 362.394 736.448C357.19 811.984 374.919 891.391 413.193 966.121C431.835 1002.45 455.02 1038.05 483.326 1073.87C505.967 1102.46 531.78 1131.05 561.133 1159.94L562.311 1158.9C496.527 1093.79 448.108 1030.56 414.74 965.385C376.474 890.818 358.939 811.729 363.984 736.528C370.561 640.141 411.468 556.68 479.2 500.936C485.551 501.094 491.902 501.252 498.429 501.401C436.457 559.46 401.382 643.27 399.189 739.264C397.517 814.943 417.671 893.568 457.433 966.42C473.993 996.639 494.075 1026.84 517.471 1056.37C544.076 1089.99 575.065 1123.22 610.053 1155.42L611.231 1154.37C545.327 1093.69 494.071 1030.11 458.804 965.694C419.051 893.005 398.914 814.706 400.771 739.182C402.964 643.188 438.381 559.196 500.546 501.454C507.082 501.766 513.617 502.078 520.153 502.39C463.563 562.294 433.627 646.653 435.809 742.09C437.493 817.92 460.248 895.754 501.505 966.892C516.035 991.982 533.015 1016.78 552.079 1040.98C582.27 1079.15 618.042 1116.22 659.175 1151.37L660.345 1150.16C593.557 1092.8 540.629 1030.94 503.052 966.156C461.804 895.182 439.241 817.665 437.575 742.161C435.568 646.714 465.504 562.356 522.462 502.759C525.115 502.948 527.944 503.127 530.596 503.315C534.488 503.602 538.555 503.88 542.446 504.166C491.063 565.925 466.239 650.343 472.438 745.079C477.468 820.897 502.825 897.94 545.587 967.527C558.102 987.814 572.006 1007.7 587.291 1027.02C621.069 1069.76 661.588 1110.01 708.296 1147.32L709.458 1145.95C641.778 1091.74 587.17 1031.45 547.301 966.619C504.548 897.196 479.392 820.633 474.37 744.978C468.172 650.242 492.996 565.823 544.747 504.373C551.651 504.993 558.547 505.45 565.451 506.07C519.433 569.346 499.105 655.492 509.233 747.896C517.611 823.702 545.385 899.8 589.826 967.826C599.977 983.329 610.998 998.622 622.704 1013.55C659.884 1060.69 705.143 1103.97 757.401 1142.95L758.562 1141.58C689.991 1090.52 633.703 1031.79 591.374 967.091C547.116 899.219 519.359 823.446 510.99 747.803C500.862 655.4 521.374 569.408 567.409 506.458C574.489 507.068 581.577 507.842 588.657 508.453C547.302 573.285 531.726 659.346 545.686 750.894C557.226 826.534 587.777 901.833 633.732 968.47C640.982 979.053 648.759 989.607 657.046 999.808C697.997 1051.66 748.934 1099.05 806.338 1138.75L807.491 1137.21C738.941 1089.92 679.481 1031.19 635.438 967.399C589.676 901.079 559.318 826.097 547.61 750.629C533.659 659.244 549.243 573.347 590.791 508.832C598.055 509.597 605.319 510.361 612.583 511.126C575.714 577.523 564.531 663.353 582.314 753.883C597.193 829.348 630.161 903.702 677.805 968.942C682.364 975.248 687.09 981.381 692.001 987.668C736.529 1043.91 792.566 1094.48 855.284 1134.71L856.604 1133C787.145 1088.54 726.006 1031.37 679.686 967.862C632.227 902.775 599.276 828.748 584.581 753.436C566.807 663.07 577.999 577.403 614.884 511.332C622.324 512.088 629.763 512.843 637.203 513.599C604.402 580.273 597.62 666.037 619.05 755.557ZM639.77 512.155C641.841 507.956 643.92 503.92 646.174 499.876C653.614 500.631 660.869 501.232 668.309 501.988C666.406 506.014 664.511 510.204 662.616 514.394C655.001 513.648 647.386 512.901 639.77 512.155ZM395.855 497.451C400.17 495.752 404.495 494.216 408.819 492.681C413.353 491.789 417.896 491.06 422.439 490.331C418.299 492.02 414.334 493.701 410.379 495.544C405.476 496.128 400.757 496.867 395.855 497.451ZM392.006 497.98C387.639 498.699 383.448 499.41 379.256 500.12C383.238 498.766 387.403 497.566 391.561 496.203C395.392 495.348 399.399 494.483 403.415 493.782C399.433 495.136 395.636 496.644 392.006 497.98ZM1141.51 316.027C1139.69 318.412 1138.06 320.789 1136.24 323.174C1133.28 323.82 1130.5 324.62 1127.54 325.266C1129.36 322.881 1130.98 320.341 1132.8 317.956C1135.42 317.491 1137.86 317.036 1140.47 316.408C1140.64 316.236 1141.16 316.208 1141.51 316.027ZM1217.53 294.208C1216.86 294.734 1216.17 295.097 1215.49 295.624C1214.46 296.005 1213.6 296.541 1212.57 296.922C1213.24 296.396 1213.92 295.87 1214.59 295.18C1215.45 294.808 1216.5 294.59 1217.36 294.217C1217.36 294.217 1217.36 294.217 1217.53 294.208ZM478.688 477.73C483.767 477.136 488.661 476.389 493.748 475.959C491.348 477.23 488.781 478.673 486.389 480.108C485.026 480.997 483.479 481.733 482.116 482.622C476.678 483.071 471.415 483.51 466.152 483.95C470.267 481.771 474.39 479.755 478.688 477.73ZM462.99 484.115C457.911 484.709 452.824 485.139 447.921 485.723C452.053 483.87 456.184 482.018 460.5 480.319C465.219 479.581 469.937 478.843 474.831 478.095C470.708 480.111 466.761 482.118 462.99 484.115ZM1124.16 328.061C1122.35 330.447 1120.71 332.823 1118.9 335.209C1116.12 336.009 1113.16 336.655 1110.2 337.301C1112.01 334.916 1113.64 332.376 1115.28 329.999C1118.41 329.181 1121.38 328.698 1124.16 328.061ZM1065.24 393.815C1065.75 393.461 1066.26 393.107 1066.58 392.599C1067.27 392.236 1067.96 391.872 1068.82 391.5C1068.47 391.682 1068.32 392.017 1067.97 392.199C1066.94 392.58 1066.09 393.279 1065.24 393.815ZM640.178 472.866C643.161 469.274 646.153 465.844 649.32 462.406C655.504 462.737 661.855 462.895 668.039 463.225C666.886 464.758 665.558 466.3 664.396 467.67C662.742 469.72 661.271 471.924 659.793 473.965C653.257 473.653 646.713 473.178 640.178 472.866ZM534.226 471.71C528.779 471.996 523.332 472.281 517.893 472.73C521.824 470.397 525.762 468.227 529.868 465.885C534.947 465.292 540.034 464.861 545.296 464.422C542.738 466.029 540.355 467.626 537.796 469.233C536.784 470.104 535.422 470.993 534.226 471.71ZM538.919 470.483C542.154 468.35 545.566 466.208 548.81 464.238C554.073 463.798 559.512 463.35 564.959 463.064C564.624 463.409 564.106 463.6 563.771 463.945C560.544 466.241 557.317 468.537 554.274 470.987C548.643 471.118 543.02 471.413 537.397 471.708C537.899 471.191 538.409 470.837 538.919 470.483ZM1157.26 330.908C1158.11 330.209 1158.77 329.52 1159.63 328.984C1160.66 328.439 1161.87 328.049 1162.9 327.504C1162.22 328.03 1161.37 328.566 1160.7 329.255C1159.49 329.646 1158.46 330.191 1157.26 330.908ZM589.387 458.512C588.2 459.392 587.188 460.263 586.001 461.143C580.37 461.275 574.923 461.56 569.476 461.846C573.222 459.359 576.968 456.872 580.898 454.539C585.985 454.109 591.247 453.669 596.519 453.393C594.136 454.99 591.761 456.751 589.387 458.512ZM590.518 459.925C593.57 457.638 596.797 455.342 599.857 453.218C605.304 452.933 610.575 452.656 616.198 452.362C615.864 452.706 615.521 452.888 615.011 453.242C611.968 455.692 608.933 458.305 605.89 460.755C600.075 460.733 594.444 460.865 588.812 460.996C589.498 460.633 590.008 460.279 590.518 459.925ZM612.634 444.859C617.721 444.428 622.808 443.998 627.895 443.568C624.324 446.046 620.938 448.677 617.544 451.146C612.097 451.431 606.817 451.544 601.555 451.984C605.125 449.506 608.879 447.182 612.634 444.859ZM644.185 435.024C649.096 434.603 654.008 434.182 658.919 433.761C655.525 436.23 652.13 438.698 648.92 441.321C643.649 441.597 638.377 441.873 633.282 442.14C636.852 439.663 640.606 437.339 644.185 435.024ZM675.385 425.208C680.112 424.633 685.024 424.212 689.935 423.791C686.54 426.26 683.313 428.556 680.103 431.178C675.007 431.445 669.912 431.712 664.825 432.143C668.228 429.837 671.806 427.523 675.385 425.208ZM706.585 415.392C711.137 414.827 715.872 414.415 720.608 414.003C717.381 416.299 714.162 418.758 710.943 421.218C706.023 421.476 700.928 421.743 696.016 422.164C699.595 419.849 702.998 417.544 706.585 415.392ZM737.426 405.432C742.153 404.857 746.888 404.445 751.615 403.87C748.388 406.166 745.161 408.462 742.118 410.912C737.198 411.17 732.286 411.591 727.367 411.849C730.602 409.716 734.014 407.574 737.426 405.432ZM1127.3 347.531C1126.46 348.23 1125.79 348.919 1124.94 349.618C1122.88 350.544 1120.82 351.634 1118.75 352.56C1120.26 351.009 1121.77 349.621 1123.28 348.069C1125.35 347.306 1127.42 346.38 1129.31 345.626C1128.65 346.315 1127.98 347.005 1127.3 347.531ZM1102.51 361.92C1101.34 363.126 1099.99 364.342 1098.82 365.549C1096.58 366.484 1094.35 367.583 1091.93 368.528C1093.6 366.804 1095.1 365.089 1096.77 363.366C1099.18 362.421 1101.43 361.649 1103.85 360.704C1103.34 361.058 1102.83 361.412 1102.51 361.92ZM1077.54 376.318C1076.03 377.869 1074.53 379.42 1073.02 380.972C1070.61 382.08 1068.02 383.034 1065.6 383.978C1067.27 382.091 1068.93 380.205 1070.58 378.154C1073.19 377.364 1075.6 376.419 1078.2 375.465C1078.04 375.8 1077.87 375.973 1077.54 376.318ZM660.687 450.685C663.036 448.434 665.552 446.012 668.085 443.916C668.929 443.217 669.773 442.518 670.618 441.82C676.073 441.697 681.713 441.729 687.353 441.761C687.529 441.751 687.704 441.742 687.704 441.742C684.52 444.854 681.511 447.957 678.511 451.223C672.686 451.037 666.862 450.852 661.223 450.82C660.871 450.839 660.863 450.675 660.687 450.685ZM642.109 449.204C644.977 446.763 647.852 444.485 650.728 442.208C656.175 441.922 661.631 441.8 667.262 441.668C667.095 441.841 666.752 442.022 666.593 442.358C663.559 444.971 660.709 447.738 657.867 450.669C652.052 450.646 646.412 450.615 640.596 450.592C641.106 450.238 641.608 449.721 642.109 449.204ZM692.218 437.088C691.039 438.132 689.869 439.338 688.699 440.545C688.172 440.572 687.644 440.6 687.109 440.465C681.996 440.405 676.892 440.509 671.788 440.613C675.165 437.818 678.542 435.023 681.928 432.392C687.2 432.115 692.655 431.993 698.111 431.871C696.088 433.613 694.241 435.346 692.218 437.088ZM690.7 441.749C696.515 441.771 702.339 441.957 708.331 441.97C705.33 445.236 702.514 448.656 699.698 452.076C693.514 451.746 687.514 451.569 681.33 451.239C684.331 447.973 687.515 444.861 690.7 441.749ZM691.87 440.542C692.539 439.853 693.207 439.163 693.884 438.637C696.4 436.214 698.925 433.955 701.625 431.687C705.499 431.647 709.549 431.599 713.423 431.559C715.005 431.476 716.594 431.557 718.36 431.628C718.193 431.8 718.193 431.8 718.017 431.809C715 434.749 712.167 437.842 709.334 440.936C703.51 440.75 697.685 440.565 691.87 440.542ZM1087.85 364.651C1085.26 365.605 1082.48 366.405 1079.7 367.205C1081.52 364.983 1083.17 362.769 1084.81 360.556C1087.59 359.756 1090.38 359.119 1092.98 358.329C1091.32 360.379 1089.5 362.601 1087.85 364.651ZM1094.54 357.919C1097.14 357.129 1099.75 356.338 1102.35 355.547C1100.68 357.434 1099.03 359.484 1097.19 361.38C1094.6 362.334 1092.01 363.288 1089.4 364.079C1091.06 362.029 1092.89 359.969 1094.54 357.919ZM1078.31 367.605C1075.54 368.405 1072.59 369.378 1069.81 370.178C1071.63 367.792 1073.26 365.416 1075.08 363.03C1075.43 363.011 1075.77 362.83 1075.95 362.821C1078.56 362.193 1080.99 361.575 1083.59 360.784C1081.96 363.16 1080.13 365.383 1078.31 367.605ZM1076.5 369.991C1074.68 372.213 1073.02 374.263 1071.2 376.486C1068.43 377.449 1065.66 378.412 1063.06 379.203C1064.89 376.981 1066.53 374.767 1068.34 372.382C1071.12 371.582 1073.9 370.782 1076.5 369.991ZM1069.2 378.718C1067.88 380.26 1066.38 381.974 1065.05 383.517C1064.72 383.861 1064.38 384.206 1064.06 384.714C1061.46 385.668 1058.7 386.794 1056.1 387.585C1057.93 385.526 1059.58 383.313 1061.41 381.253C1064.01 380.462 1066.6 379.508 1069.2 378.718ZM1061.84 379.431C1059.07 380.394 1056.12 381.203 1053.34 382.003C1055.16 379.617 1056.79 377.241 1058.61 374.855C1058.95 374.674 1059.48 374.646 1059.83 374.628C1062.26 374.009 1064.7 373.391 1067.12 372.609C1065.48 374.823 1063.66 377.208 1061.84 379.431ZM1060.2 381.644C1058.37 383.866 1056.72 385.917 1054.9 388.139C1052.13 389.102 1049.36 390.065 1046.58 390.865C1048.41 388.643 1050.05 386.43 1051.86 384.044C1054.64 383.244 1057.42 382.444 1060.2 381.644ZM1053.07 390.198C1052.9 390.371 1052.73 390.543 1052.57 390.715C1050.9 392.602 1049.41 394.317 1047.74 396.204C1045.16 397.321 1042.39 398.284 1039.8 399.238C1041.63 397.179 1043.28 394.966 1044.93 392.916C1047.7 391.952 1050.47 390.989 1053.07 390.198ZM1038.76 399.62C1029.77 402.873 1020.59 405.808 1011.38 408.254C949.173 424.931 883 422.999 818.944 421.121C792.828 420.362 765.833 419.65 739.425 420.052C737.492 420.154 735.727 420.082 733.794 420.184C736.828 417.57 740.039 414.948 743.592 412.144C750.796 411.766 758.176 411.38 765.564 411.156C791.419 410.292 817.878 410.869 843.45 411.328C904.643 412.375 967.954 413.475 1027.56 397.752C1033.13 396.316 1038.51 394.725 1043.88 392.971C1042.41 395.338 1040.58 397.397 1038.76 399.62ZM739.494 421.358C765.717 420.801 792.72 421.677 818.836 422.435C882.893 424.314 949.242 426.236 1011.61 409.387C1020.13 407.141 1028.62 404.405 1036.92 401.516C1035.27 403.566 1033.44 405.625 1031.6 407.521C1019.69 412.236 1007.58 416.47 995.248 419.898C930.285 437.701 860.898 434.956 793.979 432.246C770.498 431.349 746.482 430.317 722.693 430.255C725.719 427.479 728.736 424.539 732.281 421.572C734.741 421.443 737.209 421.477 739.494 421.358ZM719.522 430.258C717.405 430.205 715.472 430.306 713.355 430.254C709.832 430.275 706.485 430.287 702.971 430.471C706.172 427.685 709.558 425.053 712.944 422.422C718.216 422.145 723.487 421.869 728.942 421.747C725.741 424.533 722.539 427.318 719.522 430.258ZM719.684 433.358C720.361 432.832 720.854 432.151 721.531 431.625C745.672 431.669 770.215 432.673 794.047 433.551C861.142 436.252 930.529 438.997 995.844 421.176C1007.48 417.948 1018.91 414.24 1029.95 409.735C1028.29 411.622 1026.45 413.518 1024.79 415.405C1010.15 421.898 994.938 427.441 979.304 431.696C911.406 450.634 838.971 446.904 769.014 443.371C750.462 442.38 731.383 441.417 712.329 440.943C714.661 438.366 717.168 435.781 719.684 433.358ZM1030.98 409.19C1033.4 408.245 1035.98 407.128 1038.4 406.183C1036.73 407.907 1035.06 409.631 1033.21 411.364C1030.8 412.472 1028.4 413.743 1025.82 414.86C1027.66 412.964 1029.49 411.068 1030.98 409.19ZM1032.99 407.121C1034.65 405.235 1036.48 403.175 1038.14 401.125C1040.73 400.171 1043.32 399.217 1045.91 398.263C1044.25 400.15 1042.41 402.046 1040.74 403.77C1038.17 405.05 1035.57 406.004 1032.99 407.121ZM1047.29 397.7C1049.71 396.755 1052.13 395.811 1054.54 394.703C1052.87 396.426 1051.19 398.15 1049.69 399.702C1047.28 400.809 1044.87 401.917 1042.29 403.035C1043.97 401.474 1045.63 399.587 1047.29 397.7ZM1049.29 395.468C1050.62 393.926 1051.96 392.547 1053.29 391.005C1053.61 390.497 1053.95 390.152 1054.45 389.635C1057.04 388.681 1059.47 387.9 1062.06 386.946C1060.4 388.833 1058.73 390.556 1057.05 392.28C1054.47 393.397 1051.88 394.514 1049.29 395.468ZM1063.62 386.373C1066.03 385.429 1068.45 384.484 1070.87 383.539C1069.2 385.263 1067.69 386.814 1066.01 388.375C1063.6 389.483 1061.37 390.581 1058.95 391.526C1060.45 389.812 1061.94 388.097 1063.62 386.373ZM1072.76 375.914C1074.59 373.854 1076.23 371.641 1077.89 369.591C1080.49 368.8 1083.09 368.009 1085.69 367.218C1084.04 369.269 1082.2 371.165 1080.37 373.224C1077.94 374.006 1075.35 374.96 1072.76 375.914ZM1087.42 366.474C1089.84 365.692 1092.43 364.738 1094.86 363.957C1093.19 365.68 1091.69 367.395 1090.02 369.119L1089.85 369.291C1087.44 370.236 1084.85 371.353 1082.44 372.298C1083.92 370.42 1085.76 368.524 1087.42 366.474ZM1099.27 360.617C1100.93 358.73 1102.59 356.843 1104.26 354.956C1106.68 354.175 1109.11 353.393 1111.53 352.611C1109.86 354.335 1108.2 356.222 1106.53 357.946C1104.1 358.727 1101.68 359.672 1099.27 360.617ZM1113.77 351.676C1116.02 350.903 1118.44 349.959 1120.69 349.186C1119.19 350.738 1117.51 352.298 1116 353.85C1113.76 354.785 1111.35 355.893 1109.11 356.829C1110.61 355.114 1112.1 353.4 1113.77 351.676ZM1126.12 345.139C1127.79 343.415 1129.28 341.7 1130.96 339.977C1133.21 339.204 1135.46 338.432 1137.71 337.659C1136.03 339.22 1134.52 340.771 1132.84 342.332C1130.61 343.431 1128.36 344.203 1126.12 345.139ZM1123.53 346.256C1121.12 347.201 1118.7 348.145 1116.27 348.927C1117.94 347.04 1119.6 345.153 1121.26 343.266C1123.69 342.485 1126.11 341.703 1128.71 340.912C1126.87 342.645 1125.2 344.369 1123.53 346.256ZM1114.02 349.699C1111.43 350.653 1108.83 351.444 1106.41 352.389C1108.07 350.339 1109.9 348.279 1111.55 346.229C1114.15 345.439 1116.75 344.648 1119.35 343.857C1117.52 345.753 1115.86 347.803 1114.02 349.699ZM1104.5 352.98C1101.74 353.943 1099.13 354.734 1096.36 355.534C1098.18 353.311 1099.82 351.098 1101.47 348.885C1104.26 348.248 1107.03 347.448 1109.63 346.657C1108.16 348.698 1106.33 350.92 1104.5 352.98ZM1094.97 355.934C1092.19 356.734 1089.41 357.534 1086.64 358.334C1088.45 355.948 1090.09 353.572 1091.73 351.358C1091.91 351.349 1091.91 351.349 1092.08 351.34C1094.87 350.703 1097.48 350.075 1100.26 349.275C1098.44 351.498 1096.79 353.711 1094.97 355.934ZM1085.42 358.725C1082.47 359.534 1079.69 360.334 1076.73 360.98C1078.54 358.431 1080.17 356.055 1081.98 353.506C1084.94 352.86 1087.9 352.214 1090.69 351.577C1088.87 353.962 1087.06 356.348 1085.42 358.725ZM1075.69 361.198C1075.51 361.207 1075.51 361.207 1075.69 361.198C1072.73 361.844 1069.77 362.653 1066.81 363.3C1068.62 360.751 1070.24 358.048 1072.04 355.499C1075.01 355.016 1077.97 354.37 1081.11 353.715C1079.13 356.273 1077.32 358.822 1075.69 361.198ZM1074.04 363.411C1072.23 365.797 1070.59 368.174 1068.78 370.559C1065.82 371.368 1063.05 372.168 1060.09 372.978C1061.9 370.429 1063.54 368.052 1065.34 365.504C1068.29 364.694 1071.26 364.048 1074.04 363.411ZM1059.22 373.024C1005.13 386.493 948.068 387.03 892.767 387.473C868.116 387.784 842.754 387.968 817.979 389.266C801.99 390.104 786.553 391.404 771.493 393.175C774.57 391.377 777.815 389.407 781.243 387.592C801.347 384.575 822.364 382.164 844.311 380.687C868.541 379.09 893.175 378.453 917.281 377.844C966.021 376.599 1016.35 375.434 1064.62 365.214C1062.83 368.089 1061.02 370.475 1059.22 373.024ZM818.073 391.061C842.848 389.762 868.202 389.415 892.861 389.268C947.626 388.689 1004.16 388.18 1057.91 375.055C1056.1 377.441 1054.46 379.817 1052.65 382.203C1049.7 383.012 1046.57 383.831 1043.61 384.64C986.765 399.236 926.668 398.95 868.513 398.725C843.31 398.573 817.404 398.459 792.093 399.621C780.663 400.057 769.426 400.809 758.374 401.716C761.61 399.583 764.846 397.45 768.257 395.308C784.195 393.491 800.854 391.963 818.073 391.061ZM791.819 401.108C817.129 399.946 843.044 400.224 868.239 400.212C926.57 400.427 986.842 400.705 1043.87 386.099C1046.3 385.481 1048.56 384.872 1050.99 384.253C1049.17 386.476 1047.54 388.852 1045.71 391.075C1039.65 393.029 1033.58 394.819 1027.5 396.447C968.061 412.16 904.926 411.051 843.733 410.004C818.161 409.545 791.535 409.14 765.671 409.841C758.986 410.028 752.309 410.378 745.632 410.728C748.675 408.278 752.078 405.973 755.472 403.504C767.403 402.552 779.519 401.753 791.819 401.108ZM739.91 412.5C736.692 414.96 733.481 417.582 730.455 420.359C725.176 420.472 719.904 420.748 714.809 421.015C718.027 418.556 721.422 416.087 724.992 413.61C729.903 413.189 734.99 412.758 739.91 412.5ZM709.254 422.615C706.044 425.238 702.834 427.86 699.632 430.646C694.353 430.759 688.897 430.881 683.801 431.148C687.187 428.516 690.582 426.048 694.152 423.57C699.063 423.149 704.159 422.882 709.254 422.615ZM678.414 432.576C675.028 435.207 671.827 437.993 668.625 440.779C663.169 440.901 657.714 441.023 652.267 441.309C655.653 438.677 659.223 436.199 662.793 433.722C668.047 433.119 673.143 432.852 678.414 432.576ZM647.398 442.546C645.2 444.297 643.001 446.049 640.811 447.963C639.624 448.843 638.621 449.878 637.442 450.921C631.811 451.053 626.355 451.175 620.724 451.306C624.286 448.665 627.847 446.025 631.417 443.547C636.847 442.935 642.119 442.659 647.398 442.546ZM616.309 454.483C617.321 453.612 618.341 452.904 619.361 452.196C624.992 452.064 630.624 451.933 636.255 451.801C632.886 454.759 629.693 457.708 626.333 460.829C620.341 460.816 614.517 460.631 608.71 460.771C611.243 458.675 613.776 456.579 616.309 454.483ZM639.25 451.808C645.057 451.667 650.873 451.69 656.697 451.875C653.512 454.987 650.512 458.253 647.336 461.528C643.102 461.423 639.035 461.145 634.801 461.04C632.859 460.978 631.094 460.907 629.161 461.008C632.513 457.724 635.882 454.766 639.25 451.808ZM659.684 451.719C660.211 451.691 660.563 451.673 661.098 451.808C666.562 451.849 672.035 452.053 677.508 452.257C674.507 455.523 671.691 458.943 668.884 462.526C662.7 462.196 656.516 461.865 650.164 461.707C653.148 458.115 656.332 455.003 659.684 451.719ZM680.327 452.273C686.503 452.44 692.687 452.771 698.871 453.101C696.055 456.521 693.423 460.095 690.8 463.832C684.432 463.348 677.896 463.036 671.537 462.714C674.336 458.968 677.327 455.539 680.327 452.273ZM701.691 453.117C715.649 453.858 729.783 454.59 743.398 455.512C816.569 459.858 892.402 464.556 963.403 444.31C981.112 439.291 998.392 432.823 1014.89 424.922C1013.21 426.483 1011.53 428.044 1010.03 429.595C990.141 440.127 968.922 448.765 947.048 454.984C873.278 476.193 794.231 470.682 717.837 465.36C709.704 464.805 701.57 464.249 693.26 463.703C696.252 460.274 698.883 456.7 701.691 453.117ZM963.176 443.34C892.342 463.414 816.694 458.87 743.514 454.361C730.083 453.592 716.292 452.679 702.518 452.092C705.334 448.672 708.15 445.252 711.326 441.977C730.555 442.442 749.995 443.55 768.89 444.359C839.023 447.883 911.633 451.604 979.707 432.656C994.295 428.62 1008.82 423.441 1022.61 417.483C1020.94 419.206 1019.26 420.93 1017.42 422.663C1000.06 431.099 981.931 438.103 963.176 443.34ZM1023.99 416.919C1026.4 415.811 1028.64 414.876 1030.87 413.777C1029.19 415.338 1027.69 416.889 1026.01 418.45C1023.78 419.712 1021.37 420.82 1019.14 421.918C1020.81 420.195 1022.32 418.643 1023.99 416.919ZM1032.76 412.86C1034.83 411.934 1036.88 410.844 1038.95 409.918C1037.6 411.134 1036.27 412.513 1034.74 413.738C1032.7 414.99 1030.46 416.089 1028.24 417.351C1029.74 415.8 1031.25 414.248 1032.76 412.86ZM1035.28 410.438C1036.96 408.877 1038.45 407.162 1040.12 405.439C1042.37 404.503 1044.6 403.404 1046.84 402.469C1045.34 404.02 1043.65 405.418 1042.14 406.969C1039.91 408.068 1037.51 409.339 1035.28 410.438ZM1048.91 401.542C1050.97 400.616 1053.04 399.69 1054.92 398.609C1053.4 399.834 1052.05 401.05 1050.54 402.439C1048.48 403.528 1046.6 404.608 1044.54 405.698C1046.06 404.31 1047.57 402.921 1048.91 401.542ZM1051.76 398.775C1053.26 397.224 1054.94 395.663 1056.44 393.949C1058.68 393.013 1060.92 392.078 1063.15 390.979C1061.65 392.53 1059.96 393.928 1058.45 395.316C1056.05 396.587 1053.99 397.676 1051.76 398.775ZM1065.39 390.043C1067.28 389.126 1069.17 388.209 1071.06 387.292C1069.72 388.508 1068.36 389.56 1067.19 390.767C1065.31 391.847 1063.25 392.937 1061.36 393.854C1062.54 392.81 1063.88 391.432 1065.39 390.043ZM1068.24 387.276C1069.75 385.725 1071.26 384.336 1072.77 382.785C1074.83 381.859 1077.07 380.923 1079.14 379.997C1077.63 381.385 1076.29 382.764 1074.78 384.152C1072.53 385.088 1070.3 386.187 1068.24 387.276ZM1075.09 380.045C1076.09 379.011 1077.09 377.814 1078.26 376.77C1078.93 376.081 1079.43 375.4 1080.09 374.711C1082.51 373.766 1084.76 372.994 1087 372.058C1085.32 373.619 1083.83 375.333 1082.15 376.894C1079.91 377.993 1077.51 379.101 1075.09 380.045ZM1089.25 371.286C1091.32 370.36 1093.57 369.587 1095.63 368.661C1094.12 370.049 1092.61 371.437 1090.93 372.998C1088.87 374.087 1086.81 375.014 1084.56 375.949C1086.24 374.389 1087.75 372.837 1089.25 371.286ZM1098.39 367.371C1100.11 366.627 1102 365.709 1103.72 364.965C1102.54 366.008 1101.2 367.224 1100.02 368.267C1098.13 369.185 1096.41 370.092 1094.53 371.173C1095.87 369.794 1097.22 368.578 1098.39 367.371ZM1101.75 364.25C1102.25 363.733 1102.75 363.216 1103.43 362.689C1104.43 361.655 1105.27 360.793 1106.27 359.759C1108.34 358.996 1110.41 358.07 1112.47 357.143C1110.96 358.531 1109.45 359.92 1108.11 361.299C1105.87 362.234 1103.8 363.161 1101.75 364.25ZM1115.57 355.672C1117.29 354.927 1119.01 354.183 1120.74 353.438C1119.38 354.491 1118.21 355.697 1116.86 356.75C1115.14 357.658 1113.43 358.566 1111.72 359.474C1112.89 358.267 1114.23 357.051 1115.57 355.672ZM1128.9 347.774C1130.07 346.568 1131.25 345.524 1132.59 344.309C1134.32 343.564 1136.04 342.819 1137.76 342.074C1136.58 343.118 1135.4 344.161 1134.23 345.205C1132.34 346.122 1130.62 347.03 1128.9 347.774ZM1136.29 340.843C1137.8 339.454 1139.13 337.912 1140.47 336.533C1142.54 335.77 1144.44 335.016 1146.51 334.253C1145 335.641 1143.65 336.857 1142.14 338.245C1140.25 339.162 1138.19 340.089 1136.29 340.843ZM1150.14 332.917C1151.87 332.172 1153.42 331.6 1155.14 330.855C1154.13 331.726 1153.29 332.425 1152.28 333.296C1152.11 333.469 1151.77 333.65 1151.6 333.823C1149.89 334.731 1148.16 335.475 1146.44 336.22C1147.62 335.177 1148.96 333.961 1150.14 332.917ZM1178.43 317.855C1178.08 318.036 1177.74 318.218 1177.4 318.4C1176.71 318.763 1176.03 319.126 1175.34 319.489C1176.01 318.8 1176.86 318.264 1177.53 317.575C1178.57 317.193 1179.6 316.811 1180.46 316.276C1179.78 316.802 1179.1 317.329 1178.43 317.855ZM1169.15 322.431C1167.6 323.167 1165.88 323.912 1164.33 324.647C1165.51 323.604 1166.86 322.388 1168.04 321.344C1169.59 320.772 1171.32 320.027 1172.87 319.455C1171.52 320.508 1170.34 321.551 1169.15 322.431ZM1159.86 326.681C1157.79 327.608 1155.89 328.362 1153.83 329.288C1155.34 327.9 1156.86 326.512 1158.18 324.97C1160.26 324.206 1162.16 323.452 1164.24 322.852C1162.73 324.241 1161.21 325.466 1159.86 326.681ZM1150.21 330.787C1147.97 331.722 1145.72 332.658 1143.47 333.43C1145.15 331.707 1146.65 330.155 1148.15 328.441C1150.4 327.668 1152.65 326.896 1154.9 326.123C1153.57 327.666 1151.89 329.226 1150.21 330.787ZM1140.71 334.557C1138.3 335.501 1135.88 336.446 1133.45 337.228C1135.12 335.341 1136.78 333.454 1138.44 331.567C1140.87 330.785 1143.3 330.004 1145.72 329.222C1144.23 331.1 1142.39 332.833 1140.71 334.557ZM1131.2 338C1128.61 338.954 1126.01 339.745 1123.42 340.699C1125.07 338.649 1126.9 336.59 1128.56 334.539C1131.16 333.749 1133.77 333.121 1136.37 332.33C1134.71 334.217 1132.87 336.113 1131.2 338ZM1121.51 341.29C1118.91 342.081 1116.14 343.044 1113.36 343.844C1115.18 341.621 1116.83 339.408 1118.65 337.186C1121.44 336.549 1124.04 335.758 1126.82 334.958C1124.99 337.017 1123.34 339.23 1121.51 341.29ZM1111.8 344.253C1109.02 345.053 1106.24 345.853 1103.29 346.662C1105.1 344.277 1106.75 342.063 1108.56 339.678C1111.35 339.041 1114.31 338.395 1117.09 337.595C1115.27 339.817 1113.62 342.03 1111.8 344.253ZM1101.89 346.899C1099.12 347.699 1096.16 348.345 1093.19 348.991C1095.01 346.605 1096.64 344.066 1098.44 341.517C1101.4 340.871 1104.19 340.234 1107.15 339.588C1105.53 342.291 1103.71 344.513 1101.89 346.899ZM1092.16 349.373C1091.98 349.382 1091.81 349.391 1091.64 349.563C1088.85 350.2 1086.07 350.837 1083.28 351.474C1085.09 348.925 1086.72 346.386 1088.34 343.683C1091.31 343.2 1094.44 342.545 1097.4 341.899C1095.78 344.438 1093.97 346.987 1092.16 349.373ZM1082.23 351.529C1079.27 352.175 1076.13 352.831 1073.16 353.313C1074.78 350.611 1076.58 347.899 1078.2 345.196C1081.34 344.704 1084.31 344.221 1087.45 343.566C1085.84 346.432 1084.03 348.98 1082.23 351.529ZM1072.46 353.513C1029.36 361.499 984.708 363.348 941.458 365.124C918.071 366.023 893.806 366.967 870.304 369.017C845.915 370.949 822.815 373.96 800.997 377.885C803.748 376.595 806.675 375.296 809.603 373.998C836.431 368.174 865.445 363.708 896.653 360.764C919.619 358.579 943.156 357.182 965.814 355.83C1002.7 353.734 1040.46 351.427 1077.51 345.559C1075.89 348.262 1074.09 350.811 1072.46 353.513ZM870.398 370.812C893.909 368.925 918.174 367.981 941.376 366.928C984.275 365.171 1028.23 363.358 1070.99 355.554C1069.37 358.257 1067.56 360.806 1065.76 363.355C1017.14 373.756 966.296 375.112 917.02 376.222C893.089 376.821 868.28 377.467 844.049 379.064C823.684 380.459 804.232 382.46 785.701 385.231C788.611 383.606 791.705 382.135 794.799 380.664C818.533 376.311 843.733 373.027 870.398 370.812ZM779.761 386.197C776.264 386.707 772.599 387.39 769.102 387.901C771.678 386.62 774.43 385.331 777.19 384.204C780.502 383.54 783.982 382.703 787.471 382.03C784.904 383.473 782.337 384.916 779.761 386.197ZM775.488 388.711C772.578 390.336 769.5 392.134 766.599 393.922C762.399 394.469 758.375 395.008 754.175 395.555C757.261 393.921 760.346 392.286 763.432 390.652C767.624 389.942 771.463 389.249 775.488 388.711ZM763.53 395.883C760.286 397.852 757.225 399.976 754.165 402.1C749.605 402.503 745.046 402.905 740.494 403.471C743.739 401.501 747.159 399.522 750.412 397.715C754.612 397.168 758.979 396.448 763.53 395.883ZM735.416 404.064C731.392 404.602 727.359 404.977 723.335 405.516C726.588 403.709 729.849 402.065 733.286 400.413C736.951 399.73 740.623 399.21 744.463 398.518C741.395 400.479 738.317 402.276 735.416 404.064ZM732.347 406.025C729.111 408.158 726.051 410.282 722.991 412.405C718.431 412.808 713.871 413.211 709.487 413.604C712.907 411.625 716.327 409.646 719.747 407.667C723.947 407.12 728.147 406.572 732.347 406.025ZM704.76 414.179C700.384 414.736 696.176 415.12 691.976 415.667C695.229 413.86 698.666 412.208 701.919 410.401C705.935 409.7 709.95 408.999 714.15 408.451C710.897 410.258 707.829 412.218 704.76 414.179ZM702.025 415.795C698.614 417.937 695.378 420.07 692.326 422.357C687.591 422.769 682.855 423.181 678.12 423.592C681.531 421.45 684.951 419.471 688.547 417.483C692.923 416.926 697.474 416.361 702.025 415.795ZM673.568 424.158C669.184 424.551 664.984 425.099 660.609 425.655C664.037 423.84 667.466 422.024 671.07 420.199C675.086 419.497 679.11 418.959 683.126 418.258C679.881 420.228 676.813 422.188 673.568 424.158ZM671.01 425.765C667.598 427.907 664.371 430.203 660.968 432.508C656.056 432.929 651.321 433.341 646.585 433.753C650.172 431.602 653.76 429.45 657.531 427.453C661.898 426.733 666.45 426.167 671.01 425.765ZM642.544 433.965C637.984 434.367 633.433 434.933 628.881 435.499C632.477 433.511 636.081 431.686 639.686 429.861C643.877 429.15 648.253 428.594 652.444 427.883C649.033 430.025 645.788 431.995 642.544 433.965ZM640.161 435.562C636.582 437.877 633.171 440.019 629.776 442.488C624.681 442.755 619.769 443.176 614.858 443.597C618.445 441.445 622.208 439.285 625.98 437.287C630.698 436.549 635.425 435.974 640.161 435.562ZM611.001 443.962C606.265 444.374 601.538 444.949 596.987 445.515C600.583 443.527 604.363 441.692 608.143 439.858C612.51 439.138 617.061 438.573 621.437 438.016C617.824 439.678 614.412 441.82 611.001 443.962ZM608.776 445.224C605.198 447.539 601.619 449.853 598.216 452.159C593.12 452.426 587.858 452.865 582.771 453.295C586.534 451.135 590.297 448.974 594.06 446.814C598.962 446.229 603.865 445.645 608.776 445.224ZM579.265 453.643C574.354 454.064 569.627 454.639 564.715 455.06C568.487 453.062 572.258 451.065 576.039 449.231C580.581 448.502 585.133 447.936 589.86 447.361C586.264 449.349 582.677 451.501 579.265 453.643ZM577.216 454.895C573.462 457.219 569.883 459.534 566.313 462.012C561.042 462.288 555.779 462.727 550.516 463.167C554.271 460.843 558.209 458.673 562.148 456.503C567.227 455.91 572.129 455.326 577.216 454.895ZM564.718 465.204C565.738 464.496 566.926 463.616 568.121 462.898C573.568 462.613 579.191 462.318 584.822 462.187C581.269 464.991 577.892 467.786 574.347 470.753C568.532 470.731 562.725 470.871 556.918 471.012C559.451 468.916 561.993 466.983 564.718 465.204ZM587.809 462.03C593.441 461.899 599.248 461.758 605.055 461.617C601.686 464.575 598.326 467.697 595.141 470.809C589.141 470.632 583.15 470.619 577.159 470.606C580.528 467.648 584.081 464.843 587.809 462.03ZM607.699 461.642C613.514 461.665 619.506 461.678 625.497 461.691C622.312 464.803 619.136 468.078 616.144 471.508C613.676 471.473 611.199 471.276 608.73 471.242C605.023 471.109 601.316 470.976 597.618 471.006C600.97 467.722 604.33 464.6 607.699 461.642ZM628.325 461.87C630.442 461.923 632.735 461.966 634.852 462.019C638.735 462.143 642.618 462.267 646.5 462.39C643.667 465.484 640.843 468.741 638.194 471.988C638.027 472.161 637.868 472.496 637.701 472.668C631.341 472.347 624.973 471.863 618.797 471.696C621.789 468.267 624.965 464.992 628.325 461.87ZM666.406 469.037C667.893 467.159 669.381 465.282 670.868 463.404C677.403 463.716 683.772 464.2 690.307 464.512C687.684 468.249 685.236 471.977 682.789 475.705C676.069 475.239 669.341 474.61 662.445 474.153C663.774 472.611 665.086 470.742 666.406 469.037ZM692.968 464.864C701.454 465.401 709.763 465.947 718.073 466.493C794.467 471.815 873.514 477.326 947.635 456.098C968.288 450.107 988.487 442.177 1007.53 432.344C1006.02 433.732 1004.5 435.12 1002.99 436.508C980.579 449.3 956.459 459.726 931.473 467.09C854.591 489.444 772.155 483.129 692.538 476.83C690.237 476.623 687.936 476.417 685.634 476.21C687.713 472.174 690.337 468.437 692.968 464.864ZM1009.23 431.273C1009.23 431.273 1009.41 431.263 1009.23 431.273C1011.29 430.183 1013.01 429.275 1014.89 428.195C1013.53 429.248 1012.35 430.291 1011 431.344C1009.13 432.587 1007.07 433.677 1005.2 434.92C1006.54 433.704 1007.89 432.488 1009.23 431.273ZM1012.09 428.669C1013.61 427.28 1015.11 425.729 1016.79 424.168C1018.85 423.079 1021.09 422.143 1023.15 421.054C1022.64 421.408 1022.31 421.916 1021.8 422.27C1020.79 423.141 1019.61 424.184 1018.6 425.055C1016.38 426.317 1014.32 427.407 1012.09 428.669ZM1022.35 422.731C1023.37 421.86 1024.37 420.826 1025.38 419.955C1027.09 419.047 1028.98 418.13 1030.7 417.222C1029.52 418.266 1028.33 419.146 1027.15 420.189C1025.27 421.27 1023.57 422.341 1021.69 423.421C1021.84 423.085 1022.01 422.913 1022.35 422.731ZM1037.99 411.768C1039.17 410.724 1040.35 409.681 1041.69 408.465C1043.41 407.557 1044.95 406.658 1046.67 405.914C1045.48 406.794 1044.3 407.837 1043.29 408.709C1041.41 409.789 1039.7 410.86 1037.99 411.768ZM1057.84 397.148C1059.38 396.412 1060.92 395.513 1062.47 394.778C1061.79 395.304 1061.29 395.821 1060.61 396.348C1060.1 396.701 1059.77 397.046 1059.26 397.4C1057.55 398.308 1056.02 399.37 1054.3 400.278C1055.66 399.225 1056.66 398.191 1057.84 397.148ZM1071.13 388.597C1072.14 387.726 1073.32 386.683 1074.33 385.812C1075.71 385.085 1077.25 384.35 1078.62 383.623C1077.61 384.494 1076.59 385.202 1075.58 386.073C1074.04 386.972 1072.5 387.871 1071.13 388.597ZM1077.86 382.518C1079.21 381.302 1080.55 380.086 1081.71 378.716C1083.6 377.799 1085.5 377.045 1087.22 376.137C1085.87 377.353 1084.69 378.397 1083.34 379.449C1081.63 380.521 1079.75 381.601 1077.86 382.518ZM1090.66 374.648C1092.03 373.922 1093.41 373.358 1094.79 372.632C1093.94 373.331 1093.1 374.03 1092.08 374.737C1090.71 375.627 1089.34 376.353 1087.8 377.252C1088.81 376.218 1089.82 375.347 1090.66 374.648ZM1099.59 370.09C1099.93 369.908 1100.45 369.718 1100.78 369.373C1100.78 369.373 1100.61 369.382 1100.61 369.545C1100.1 369.899 1099.59 370.253 1098.91 370.616C1099.25 370.435 1099.42 370.262 1099.59 370.09ZM1104.81 365.562C1105.82 364.691 1106.66 363.829 1107.68 363.121C1108.88 362.567 1110.09 362.013 1111.46 361.287C1110.61 361.986 1109.77 362.684 1108.75 363.392C1107.38 364.119 1106.01 364.845 1104.81 365.562ZM1116.43 358.735C1116.6 358.563 1116.78 358.554 1116.94 358.382C1116.6 358.563 1116.43 358.735 1116.09 358.917C1116.27 358.908 1116.43 358.735 1116.43 358.735ZM1122 354.026C1122.84 353.164 1123.86 352.456 1124.69 351.594C1125.9 351.04 1127.1 350.486 1128.31 349.932C1127.46 350.631 1126.62 351.33 1125.76 351.865C1124.57 352.583 1123.2 353.309 1122 354.026ZM1133.98 347.181C1134.15 347.172 1134.14 347.009 1134.32 347C1134.14 347.009 1133.98 347.181 1133.98 347.181C1133.8 347.19 1133.8 347.19 1133.98 347.181ZM1139.54 342.308C1139.87 341.964 1140.38 341.61 1140.71 341.265C1141.05 340.92 1141.56 340.566 1141.89 340.222C1142.92 339.677 1144.13 339.286 1145.16 338.741C1144.31 339.277 1143.64 339.966 1142.79 340.502C1141.94 341.037 1140.74 341.754 1139.54 342.308ZM1197.03 306.408C1196 306.953 1194.8 307.507 1193.77 308.052C1194.45 307.526 1195.11 306.836 1195.79 306.31C1196.83 305.928 1197.87 305.547 1198.89 305.002C1198.39 305.519 1197.72 306.045 1197.03 306.408ZM1187.24 311.176C1185.69 311.911 1183.97 312.656 1182.42 313.392C1183.6 312.348 1184.78 311.305 1185.96 310.261C1187.69 309.679 1189.23 308.944 1190.79 308.372C1189.6 309.252 1188.42 310.132 1187.24 311.176ZM1177.59 315.444C1175.7 316.198 1173.63 317.125 1171.73 317.878C1173.24 316.49 1174.76 315.102 1176.09 313.56C1178.16 312.797 1180.07 312.206 1181.97 311.452C1180.63 312.831 1179.11 314.056 1177.59 315.444ZM1168.1 319.214C1165.86 320.15 1163.62 321.085 1161.19 321.867C1162.86 320.143 1164.54 318.582 1166.04 316.868C1168.29 316.095 1170.54 315.323 1172.8 314.714C1171.29 316.265 1169.79 317.817 1168.1 319.214ZM1158.26 323.002C1155.84 323.947 1153.41 324.729 1150.99 325.51C1152.65 323.623 1154.31 321.736 1155.98 319.849C1158.4 319.068 1161.01 318.44 1163.44 317.659C1161.78 319.546 1160.1 321.269 1158.26 323.002ZM1148.57 326.455C1145.97 327.246 1143.38 328.2 1140.78 328.991C1142.61 326.931 1144.26 324.881 1145.91 322.831C1148.52 322.203 1151.13 321.413 1153.73 320.622C1152.06 322.509 1150.23 324.405 1148.57 326.455ZM1138.69 329.591C1136.09 330.381 1133.31 331.181 1130.54 331.981C1132.36 329.759 1134 327.546 1135.83 325.323C1138.61 324.686 1141.39 323.886 1144 323.259C1142.34 325.309 1140.51 327.368 1138.69 329.591ZM1128.8 332.4C1126.02 333.2 1123.23 333.837 1120.46 334.637C1122.27 332.251 1123.92 330.038 1125.73 327.652C1128.51 327.015 1131.48 326.369 1134.26 325.732C1132.44 327.955 1130.62 330.177 1128.8 332.4ZM1108.98 337.529C1108.63 337.547 1108.11 337.738 1107.76 337.756C1105.15 338.384 1102.71 338.839 1100.1 339.467C1101.9 336.918 1103.53 334.379 1105.16 331.839C1108.13 331.356 1111.09 330.71 1114.23 330.218C1112.42 332.604 1110.78 334.98 1108.98 337.529ZM1098.87 339.695C1095.91 340.341 1092.77 340.833 1089.81 341.479C1091.43 338.776 1093.23 336.227 1094.85 333.524C1098 333.032 1101.14 332.54 1104.1 331.894C1102.48 334.597 1100.68 337.146 1098.87 339.695ZM1088.94 341.688C1085.79 342.18 1082.65 342.835 1079.51 343.327C1081.13 340.625 1082.75 337.922 1084.37 335.219C1087.51 334.727 1090.66 334.235 1093.81 333.743C1092.18 336.282 1090.56 338.985 1088.94 341.688ZM1078.8 343.364C1041.42 349.414 1002.95 351.757 965.711 353.872C942.878 355.233 919.341 356.63 896.55 358.806C868.848 361.403 842.971 365.213 818.736 370.083C820.634 369.329 822.357 368.584 824.256 367.83C854.17 360.373 886.989 354.562 922.899 350.553C945.145 348.078 968.129 346.219 990.243 344.57C1021.13 342.133 1052.71 339.66 1083.84 335.247C1082.04 337.959 1080.42 340.661 1078.8 343.364ZM807.752 372.295C807.057 372.495 806.187 372.704 805.484 372.741C806.53 372.523 807.567 372.141 808.437 371.932C808.27 372.104 808.094 372.113 807.752 372.295ZM793.308 379.106C790.69 379.57 788.071 380.035 785.461 380.662C787.703 379.727 789.944 378.791 792.186 377.856C794.62 377.237 797.054 376.619 799.488 376C797.431 377.09 795.374 378.179 793.308 379.106ZM767.444 386.515C765.554 387.432 763.488 388.359 761.607 389.439C759.34 389.885 756.897 390.34 754.63 390.786C756.695 389.86 758.937 388.924 761.187 388.152C763.27 387.552 765.353 386.952 767.444 386.515ZM773.616 383.246C774.996 382.683 776.209 382.293 777.597 381.892C776.736 382.265 776.05 382.628 775.188 383C774.661 383.028 774.134 383.056 773.616 383.246ZM756.288 392.172C753.545 393.624 750.978 395.068 748.235 396.521C744.913 397.022 741.592 397.523 738.271 398.025C741.189 396.563 744.117 395.264 747.044 393.965C750.181 393.31 753.142 392.664 756.288 392.172ZM731.285 399.209C728.315 399.692 725.529 400.328 722.735 400.802C724.977 399.867 727.394 398.922 729.802 397.814C732.588 397.177 735.198 396.549 737.984 395.913C735.751 397.011 733.518 398.11 731.285 399.209ZM726.309 401.76C723.391 403.222 720.48 404.847 717.746 406.463C714.073 406.983 710.225 407.512 706.561 408.194C709.655 406.723 712.749 405.252 715.852 403.944C719.332 403.107 722.821 402.434 726.309 401.76ZM699.926 409.36C697.132 409.834 694.514 410.298 691.719 410.772C694.479 409.646 697.239 408.519 700.175 407.384C702.609 406.765 704.877 406.319 707.311 405.701C704.726 406.818 702.326 408.089 699.926 409.36ZM695.461 411.558C692.55 413.183 689.456 414.654 686.722 416.27C683.049 416.789 679.376 417.309 675.879 417.82C679.149 416.339 682.243 414.868 685.689 413.379C688.659 412.896 691.972 412.231 695.461 411.558ZM669.421 418.976C666.275 419.468 663.138 420.123 659.992 420.616C662.752 419.489 665.679 418.19 668.615 417.055C671.576 416.409 674.538 415.763 677.324 415.126C674.572 416.416 671.996 417.696 669.421 418.976ZM665.13 421.164C661.869 422.808 658.783 424.442 655.706 426.24C651.682 426.778 647.657 427.316 643.817 428.008C647.079 426.364 650.525 424.875 653.97 423.385C657.626 422.539 661.29 421.856 665.13 421.164ZM637.869 428.811C634.372 429.321 631.059 429.985 627.738 430.487C630.665 429.188 633.776 428.043 636.879 426.735C640.016 426.08 643.145 425.262 646.282 424.606C643.372 426.231 640.62 427.521 637.869 428.811ZM633.922 430.817C630.66 432.461 627.407 434.267 624.154 436.074C619.954 436.621 615.754 437.169 611.739 437.87C615.176 436.217 618.613 434.564 622.235 433.066C626.066 432.211 630.082 431.509 633.922 430.817ZM606.317 438.645C602.645 439.165 599.156 439.838 595.492 440.521C598.77 439.204 601.873 437.896 605.152 436.579C608.465 435.914 611.769 435.087 615.082 434.422C612.155 435.721 609.236 437.183 606.317 438.645ZM602.713 440.47C599.284 442.286 595.856 444.102 592.603 445.908C588.227 446.465 584.027 447.012 579.651 447.569C583.264 445.907 586.877 444.245 590.49 442.583C594.506 441.882 598.522 441.18 602.713 440.47ZM574.582 448.325C570.733 448.854 566.893 449.546 563.053 450.238C566.499 448.749 569.778 447.432 573.232 446.105C576.712 445.269 580.376 444.586 584.04 443.903C580.946 445.374 577.676 446.854 574.582 448.325ZM571.153 450.141C567.549 451.966 564.12 453.782 560.7 455.761C556.148 456.327 551.597 456.893 547.221 457.449C551.001 455.615 554.614 453.953 558.579 452.273C562.586 451.408 566.953 450.688 571.153 450.141ZM558.291 456.869C554.528 459.03 550.941 461.181 547.354 463.332C542.267 463.763 537.355 464.184 532.277 464.777C536.224 462.77 539.996 460.773 544.118 458.757C548.67 458.191 553.388 457.453 558.291 456.869ZM528.428 465.306C523.701 465.881 519.15 466.447 514.423 467.022C518.203 465.187 522.167 463.507 526.132 461.827C530.499 461.107 534.866 460.387 539.409 459.658C535.62 461.329 532.024 463.318 528.428 465.306ZM526.195 466.405C522.432 468.565 518.494 470.735 514.915 473.05C509.652 473.489 504.565 473.919 499.487 474.513C503.425 472.343 507.548 470.327 511.68 468.474C516.398 467.736 521.293 466.989 526.195 466.405ZM495.805 474.869C490.903 475.453 486 476.038 481.273 476.612C485.229 474.769 489.36 472.916 493.5 471.227C498.043 470.498 502.586 469.769 507.304 469.031C503.173 470.884 499.577 472.872 495.805 474.869ZM487.143 481.05C490.388 479.08 493.816 477.264 497.245 475.448C502.499 474.846 507.762 474.406 513.025 473.967C512.682 474.148 512.339 474.33 511.996 474.511C508.409 476.663 505.006 478.968 501.603 481.274C495.98 481.568 490.358 481.863 484.919 482.312C485.781 481.939 486.466 481.576 487.143 481.05ZM513.119 475.762C514.315 475.044 515.335 474.337 516.539 473.783C521.977 473.334 527.424 473.048 533.047 472.754C529.31 475.404 525.573 478.054 522.011 480.695C516.204 480.836 510.397 480.976 504.774 481.271C507.316 479.338 510.217 477.55 513.119 475.762ZM536.026 472.434C541.648 472.139 547.271 471.845 553.078 471.704C549.525 474.508 545.972 477.312 542.427 480.279C536.436 480.266 530.445 480.253 524.638 480.394C528.2 477.753 532.113 475.093 536.026 472.434ZM555.898 471.72C561.705 471.579 567.512 471.438 573.503 471.452C569.959 474.419 566.598 477.54 563.414 480.652C557.238 480.485 551.071 480.481 545.072 480.304C548.449 477.51 552.169 474.533 555.898 471.72ZM576.147 471.477C582.139 471.49 588.13 471.503 594.305 471.67C591.455 474.438 588.613 477.368 585.772 480.298C585.437 480.643 584.936 481.16 584.601 481.505C583.899 481.542 583.363 481.406 582.66 481.443C577.012 481.248 571.363 481.054 565.715 480.859C569.067 477.574 572.603 474.444 576.147 471.477ZM587.07 481.539C590.246 478.264 593.422 474.989 596.782 471.868C600.665 471.992 604.723 472.106 608.782 472.221C611.075 472.264 613.2 472.48 615.493 472.523C614.323 473.73 613.161 475.1 611.991 476.306C609.994 478.538 608.172 480.761 606.351 482.983C599.807 482.508 593.447 482.187 586.911 481.875C587.07 481.539 587.07 481.539 587.07 481.539ZM613.632 477.366C615.128 475.651 616.633 474.1 618.129 472.385C624.488 472.706 630.848 473.028 637.208 473.349C634.4 476.932 631.593 480.515 628.794 484.261C622.074 483.795 615.53 483.32 608.81 482.854C610.306 481.14 611.969 479.253 613.632 477.366ZM639.685 473.546C646.229 474.021 652.764 474.333 659.308 474.808C656.685 478.545 654.062 482.282 651.623 486.173C644.895 485.544 637.999 485.088 631.095 484.468C633.903 480.885 636.702 477.138 639.685 473.546ZM661.794 475.169C668.689 475.626 675.418 476.255 682.137 476.721C679.698 480.612 677.435 484.494 675.172 488.375C672.159 488.042 669.155 487.873 665.967 487.549C661.9 487.271 658 486.821 653.933 486.543C656.547 482.643 659.171 478.906 661.794 475.169ZM684.79 476.909C687.267 477.106 689.744 477.304 692.221 477.501C772.013 483.791 854.458 490.269 931.507 467.742C955.104 460.779 978.038 451.233 999.261 439.322C997.907 440.374 996.561 441.59 995.207 442.643C970.464 458.011 943.442 470.225 915.161 478.579C838.815 501.069 757.291 495.361 677.825 488.563C680.079 484.519 682.343 480.637 684.79 476.909ZM915.379 479.386C941.753 471.623 967.07 460.479 990.475 446.49C989.463 447.362 988.276 448.242 987.256 448.95C960.358 466.885 930.61 480.879 899.208 490.214C826 512.049 747.917 508.124 671.27 501.342C673.349 497.306 675.42 493.107 677.507 489.235C756.982 496.195 838.682 501.894 915.379 479.386ZM998.794 440.491C999.805 439.62 1000.82 438.749 1001.83 437.878C1003.2 437.152 1004.4 436.435 1005.76 435.545C1004.91 436.244 1004.06 436.779 1003.22 437.478C1001.69 438.54 1000.32 439.43 998.794 440.491ZM1015.26 428.666C1016.11 427.967 1016.95 427.269 1017.8 426.57C1018.99 425.853 1020.2 425.299 1021.22 424.591C1020.54 425.117 1019.69 425.653 1019.01 426.179C1017.82 427.059 1016.64 427.94 1015.26 428.666ZM1031.92 416.994C1032.6 416.468 1033.44 415.769 1034.12 415.243C1035.15 414.698 1036 414.163 1037.03 413.618C1036.52 413.972 1036.02 414.489 1035.33 414.852C1034.14 415.569 1032.94 416.287 1031.92 416.994ZM1048.58 405.323C1049.08 404.806 1049.59 404.452 1050.09 403.935C1050.94 403.399 1051.8 403.027 1052.66 402.491C1052.15 402.845 1051.81 403.19 1051.3 403.544C1050.45 404.079 1049.6 404.778 1048.58 405.323ZM1082.07 382.134C1082.4 381.789 1082.75 381.607 1083.08 381.263C1083.59 380.909 1084.11 380.718 1084.8 380.355C1084.63 380.527 1084.45 380.536 1084.29 380.709C1083.43 381.244 1082.75 381.607 1082.07 382.134ZM1205.68 300.065C1205 300.428 1204.14 300.8 1203.45 301.163C1202.59 301.536 1201.73 301.908 1200.87 302.281C1202.05 301.237 1203.4 300.184 1204.58 299.141C1206.13 298.569 1207.87 297.987 1209.42 297.415C1208.23 298.132 1206.86 299.021 1205.68 300.065ZM1195.86 304.179C1193.96 304.933 1192.06 305.687 1189.99 306.45C1191.5 305.062 1192.84 303.683 1194.35 302.295C1196.43 301.695 1198.33 300.941 1200.24 300.35C1198.89 301.566 1197.38 302.954 1195.86 304.179ZM1186.01 307.968C1183.94 308.731 1181.69 309.503 1179.44 310.275C1181.11 308.552 1182.79 306.991 1184.46 305.267C1186.72 304.658 1188.79 303.895 1191.05 303.286C1189.37 304.846 1187.69 306.407 1186.01 307.968ZM1176.33 311.42C1173.9 312.202 1171.47 312.983 1168.88 313.937C1170.55 312.05 1172.38 310.154 1174.05 308.267C1176.48 307.649 1179.08 306.858 1181.52 306.24C1179.85 307.963 1178 309.696 1176.33 311.42ZM1166.28 314.728C1163.68 315.519 1161.25 316.301 1158.65 317.091C1160.48 315.032 1162.14 312.982 1163.79 310.932C1166.4 310.304 1169.01 309.677 1171.61 308.886C1169.96 310.936 1168.12 312.832 1166.28 314.728ZM1156.22 317.71C1153.62 318.501 1150.84 319.301 1148.05 319.937C1149.88 317.715 1151.52 315.502 1153.34 313.279C1156.13 312.642 1158.74 312.015 1161.52 311.378C1159.88 313.591 1158.05 315.651 1156.22 317.71ZM1146.15 320.528C1143.37 321.328 1140.58 321.965 1137.8 322.602C1139.61 320.216 1141.26 318.003 1143.07 315.617C1145.86 314.981 1148.82 314.334 1151.6 313.698C1149.79 316.083 1147.97 318.306 1146.15 320.528ZM1125.97 325.512C1125.27 325.712 1124.4 325.922 1123.7 325.959C1121.44 326.405 1119.17 326.851 1117.08 327.287C1118.88 324.739 1120.51 322.199 1122.14 319.659C1125.11 319.177 1128.25 318.521 1131.21 317.875C1129.59 320.578 1127.78 323.127 1125.97 325.512ZM1115.86 327.678C1112.9 328.324 1109.76 328.816 1106.62 329.472C1108.25 326.932 1110.04 324.22 1111.67 321.68C1114.82 321.188 1117.96 320.696 1120.93 320.05C1119.3 322.59 1117.49 325.139 1115.86 327.678ZM1105.57 329.69C1102.43 330.182 1099.29 330.837 1096.15 331.33C1097.77 328.627 1099.39 325.924 1101.01 323.221C1104.15 322.729 1107.47 322.228 1110.62 321.736C1109 324.439 1107.37 326.978 1105.57 329.69ZM1095.27 331.376C1092.12 331.868 1088.8 332.369 1085.65 332.861C1087.27 330.158 1088.72 327.465 1090.34 324.762C1093.66 324.261 1096.81 323.769 1100.14 323.43C1098.51 325.97 1096.89 328.673 1095.27 331.376ZM1084.96 333.061C1053.31 337.665 1021.2 340.166 989.789 342.63C967.675 344.28 944.691 346.139 922.445 348.614C892.493 351.983 864.893 356.538 839.119 362.307C839.989 362.097 840.675 361.734 841.369 361.534C873.147 352.67 908.903 345.724 948.802 340.524C970.504 337.75 992.944 335.593 1014.5 333.318C1039.21 330.877 1064.45 328.409 1089.47 324.971C1088.19 327.492 1086.58 330.358 1084.96 333.061ZM747.618 391.481C746.757 391.853 746.071 392.216 745.21 392.589C743.813 392.826 742.6 393.216 741.203 393.453C741.721 393.262 742.415 393.062 742.934 392.872C744.498 392.462 746.054 391.89 747.618 391.481ZM716.937 401.106C715.908 401.651 714.871 402.032 713.842 402.577C712.797 402.796 711.751 403.014 710.881 403.223C712.437 402.651 713.817 402.088 715.372 401.515C715.9 401.488 716.418 401.297 716.937 401.106ZM688.171 410.304C686.624 411.039 685.068 411.611 683.345 412.356C681.605 412.775 679.857 413.03 678.117 413.448C680.015 412.694 681.747 412.113 683.654 411.522C685.042 411.122 686.607 410.713 688.171 410.304ZM657.481 419.765C655.758 420.51 653.859 421.264 652.145 422.172C650.229 422.6 648.138 423.037 646.222 423.464C648.121 422.71 650.204 422.11 652.102 421.356C653.834 420.775 655.574 420.356 657.481 419.765ZM626.624 429.4C624.558 430.326 622.659 431.08 620.593 432.007C618.326 432.453 616.059 432.899 613.792 433.345C616.042 432.572 618.292 431.8 620.542 431.027C622.449 430.437 624.532 429.837 626.624 429.4ZM595.749 438.708C593.508 439.643 591.266 440.579 589.033 441.678C586.415 442.142 583.805 442.77 581.01 443.243C583.428 442.299 586.029 441.508 588.446 440.563C591.056 439.936 593.491 439.317 595.749 438.708ZM564.181 448.216C561.763 449.161 559.179 450.278 556.77 451.386C553.976 451.859 551.015 452.505 548.22 452.979C550.989 452.016 553.758 451.053 556.526 450.09C559.136 449.462 561.571 448.844 564.181 448.216ZM552.296 453.42C549.026 454.9 545.589 456.553 542.319 458.033C538.294 458.571 534.279 459.273 530.263 459.974C533.885 458.475 537.339 457.149 541.136 455.641C544.792 454.795 548.632 454.103 552.296 453.42ZM524.499 460.931C521.353 461.423 518.216 462.078 515.079 462.733C518.015 461.598 521.135 460.616 524.255 459.634C527.041 458.998 529.818 458.198 532.603 457.561C529.843 458.687 527.259 459.804 524.499 460.931ZM520.367 462.783C516.754 464.445 513.309 465.935 509.871 467.587C505.672 468.135 501.48 468.845 497.289 469.556C501.086 468.048 504.883 466.54 508.68 465.032C512.52 464.34 516.527 463.475 520.367 462.783ZM491.7 470.503C488.212 471.177 484.89 471.678 481.578 472.343C484.865 471.189 488.152 470.035 491.623 469.035C494.752 468.216 497.713 467.57 500.85 466.915C497.739 468.06 494.803 469.195 491.7 470.503ZM488.087 472.165C484.474 473.827 480.861 475.489 477.248 477.151C472.697 477.716 468.33 478.436 463.963 479.156C467.76 477.648 471.733 476.131 475.706 474.614C479.713 473.749 483.896 472.875 488.087 472.165ZM459.06 479.74C455.22 480.432 451.556 481.115 447.716 481.807C451.179 480.644 454.642 479.481 458.105 478.318C461.585 477.481 465.065 476.644 468.72 475.798C465.442 477.115 462.163 478.432 459.06 479.74ZM455.439 481.239C451.474 482.919 447.686 484.59 443.906 486.424C439.179 486.999 434.636 487.728 429.909 488.303C434.049 486.614 438.197 485.087 442.522 483.552C446.889 482.832 451.247 481.949 455.439 481.239ZM425.542 489.023C421.526 489.724 417.678 490.253 413.838 490.945C417.476 489.773 421.106 488.437 424.745 487.265C428.401 486.419 432.056 485.573 435.72 484.89C432.275 486.38 428.82 487.706 425.542 489.023ZM426.982 489.602C431.876 488.855 436.77 488.107 441.673 487.523C439.44 488.622 437.207 489.721 434.974 490.819C433.084 491.736 431.37 492.644 429.48 493.561C424.217 494.001 418.963 494.603 413.709 495.206C418.183 493.172 422.499 491.473 426.982 489.602ZM435.552 491.771C438.814 490.127 442.075 488.484 445.521 486.994C450.6 486.401 455.854 485.798 461.108 485.196C460.932 485.205 460.941 485.368 460.765 485.377C456.826 487.547 452.888 489.717 449.133 492.041C443.519 492.498 438.072 492.784 432.642 493.396C433.662 492.688 434.515 492.152 435.552 491.771ZM461.344 486.329C462.372 485.784 463.401 485.239 464.429 484.694C469.859 484.083 475.298 483.634 480.745 483.348C476.815 485.681 472.717 488.187 468.98 490.837C463.182 491.141 457.559 491.435 451.936 491.73C455.013 489.933 458.266 488.126 461.344 486.329ZM483.732 483.192C489.346 482.734 494.969 482.439 500.591 482.145C496.678 484.804 492.941 487.454 489.212 490.267C483.23 490.417 477.423 490.558 471.616 490.699C475.529 488.039 479.626 485.534 483.732 483.192ZM503.403 481.997C509.201 481.693 515.008 481.553 520.815 481.412C517.086 484.225 513.542 487.193 509.997 490.16C503.83 490.156 497.839 490.143 491.848 490.129C495.585 487.479 499.49 484.657 503.403 481.997ZM523.459 481.437C529.442 481.287 535.433 481.3 541.424 481.314C538.557 483.755 535.865 486.186 533.182 488.781C532.514 489.471 531.845 490.16 531.168 490.686C524.817 490.528 518.641 490.361 512.474 490.357C516.01 487.227 519.73 484.25 523.459 481.437ZM534.288 489.705C537.481 486.756 540.683 483.97 544.06 481.176C550.227 481.18 556.402 481.347 562.578 481.514C561.575 482.548 560.564 483.419 559.385 484.463C557.036 486.713 554.872 489.117 552.531 491.53C545.996 491.218 539.636 490.897 533.285 490.739C533.795 490.385 534.129 490.04 534.288 489.705ZM560.683 485.704C562.02 484.325 563.533 482.936 564.871 481.557C570.695 481.743 576.519 481.929 582.351 482.277C582.703 482.259 583.239 482.395 583.766 482.367C580.598 485.805 577.439 489.407 574.456 492.999C568.439 492.496 562.255 492.166 556.247 491.826C555.72 491.854 555.184 491.718 554.657 491.746C556.83 489.505 558.845 487.6 560.683 485.704ZM586.41 482.392C592.945 482.704 599.305 483.025 605.849 483.5C602.866 487.093 600.067 490.839 597.268 494.585C590.54 493.956 583.82 493.49 577.1 493.024C580.084 489.432 583.067 485.84 586.41 482.392ZM608.15 483.707C614.87 484.173 621.414 484.648 628.134 485.114C625.511 488.851 622.896 492.751 620.457 496.642C613.553 496.022 606.649 495.402 599.569 494.792C602.368 491.045 605.167 487.299 608.15 483.707ZM630.611 485.311C637.515 485.931 644.41 486.388 651.139 487.017C648.7 490.908 646.445 494.953 644.19 498.998C642.776 498.908 641.353 498.656 639.763 498.575C634.098 498.054 628.432 497.533 622.767 497.012C625.373 492.948 627.812 489.058 630.611 485.311ZM653.616 487.214C657.691 487.655 661.934 487.924 666.009 488.365C669.014 488.534 671.851 488.877 674.863 489.21C672.609 493.255 670.529 497.29 668.626 501.317C661.195 500.725 653.931 499.96 646.491 499.204C648.922 495.15 651.177 491.105 653.616 487.214ZM882.913 502.03C812.841 523.21 738.551 521.049 665.085 514.428C666.804 510.248 668.698 506.058 670.777 502.022C747.608 508.958 825.691 512.883 899.243 490.867C927.348 482.522 954.195 470.316 978.77 455.121C949.891 475.614 917.435 491.713 882.913 502.03ZM1236.53 283.559C1235.86 284.085 1235.17 284.448 1234.32 284.984C1233.28 285.366 1232.43 285.901 1231.39 286.283C1232.07 285.756 1232.91 285.058 1233.59 284.531C1234.63 284.15 1235.67 283.931 1236.53 283.559ZM1228.23 286.448C1227.04 287.329 1225.85 288.209 1224.5 289.262C1222.94 289.834 1221.22 290.579 1219.66 291.151C1220.84 290.108 1222.2 289.055 1223.38 288.012C1225.11 287.43 1226.66 286.858 1228.23 286.448ZM1219.21 289.212C1217.69 290.437 1216.18 291.825 1214.48 293.059C1212.58 293.813 1210.51 294.576 1208.6 295.167C1210.11 293.779 1211.62 292.391 1213.14 291.002C1215.22 290.402 1217.13 289.812 1219.21 289.212ZM1209.67 292.002C1207.99 293.563 1206.31 295.124 1204.45 296.693C1202.2 297.466 1200.13 298.229 1197.88 299.001C1199.55 297.278 1201.23 295.717 1202.9 293.993C1205.16 293.384 1207.41 292.612 1209.67 292.002ZM1199.77 294.812C1197.92 296.545 1196.25 298.268 1194.4 300.001C1191.98 300.783 1189.73 301.555 1187.29 302.174C1189.13 300.278 1190.8 298.391 1192.63 296.495C1195.08 296.039 1197.51 295.421 1199.77 294.812ZM1190.03 297.285C1188.19 299.182 1186.36 301.241 1184.53 303.137C1181.92 303.928 1179.32 304.719 1176.71 305.346C1178.54 303.287 1180.37 301.228 1182.03 299.177C1184.64 298.55 1187.42 297.913 1190.03 297.285ZM1179.76 299.623C1177.94 301.846 1176.11 303.905 1174.1 305.974C1171.5 306.765 1168.72 307.401 1166.11 308.192C1167.94 305.97 1169.76 303.747 1171.4 301.534C1174.19 300.897 1176.98 300.26 1179.76 299.623ZM1169.49 301.962C1167.67 304.184 1165.85 306.57 1164.03 308.792C1161.25 309.429 1158.47 310.229 1155.51 310.875C1157.32 308.49 1159.14 306.267 1160.78 303.891C1163.74 303.245 1166.7 302.599 1169.49 301.962ZM1159.21 304.137C1157.39 306.522 1155.58 308.908 1153.77 311.294C1150.81 311.94 1148.02 312.576 1145.06 313.223C1146.87 310.837 1148.5 308.297 1150.31 305.912C1153.28 305.266 1156.24 304.783 1159.21 304.137ZM1148.74 306.158C1146.94 308.706 1145.3 311.083 1143.49 313.469C1142.26 313.696 1141.04 313.924 1139.83 314.315C1138.09 314.733 1136.17 314.998 1134.43 315.416C1136.23 312.867 1137.86 310.328 1139.49 307.788C1142.63 307.296 1145.6 306.65 1148.74 306.158ZM1138.27 308.016C1136.64 310.555 1134.83 313.104 1133.03 315.653C1129.89 316.308 1126.92 316.791 1123.78 317.446C1125.41 314.907 1127.03 312.204 1128.84 309.655C1131.98 309.163 1135.12 308.508 1138.27 308.016ZM1127.62 309.883C1125.99 312.422 1124.37 315.125 1122.56 317.674C1119.42 318.166 1116.28 318.821 1113.13 319.313C1114.76 316.774 1116.38 314.071 1118.01 311.531C1121.15 310.876 1124.3 310.384 1127.62 309.883ZM1116.96 311.587C1115.34 314.289 1113.71 316.829 1112.08 319.368C1108.93 319.861 1105.61 320.362 1102.47 320.854C1104.1 318.314 1105.54 315.621 1106.99 312.927C1110.32 312.589 1113.64 312.088 1116.96 311.587ZM1106.12 313.136C1104.67 315.83 1103.04 318.37 1101.6 321.063C1098.28 321.564 1094.95 322.066 1091.63 322.567C1093.08 319.873 1094.53 317.343 1095.98 314.65C1099.47 314.139 1102.79 313.638 1106.12 313.136ZM975.048 330.313C996.558 327.223 1018.61 324.431 1039.97 321.839C1058.35 319.566 1076.73 317.294 1095.27 314.686C1093.83 317.38 1092.38 319.91 1090.93 322.604C1065.39 326.07 1039.63 328.729 1014.39 331.197C992.824 333.308 970.385 335.466 948.515 338.412C922.261 341.751 897.816 345.978 875.17 350.928C903.469 342.9 936.396 335.775 975.048 330.313ZM540.031 454.717C539.855 454.727 539.688 454.899 539.512 454.908C539.336 454.917 539.161 454.926 538.993 455.099C539.161 454.926 539.679 454.736 540.031 454.717ZM508.963 463.708C508.269 463.908 507.575 464.108 507.065 464.462C506.371 464.662 505.5 464.871 504.798 464.908C506.186 464.508 507.575 464.108 508.963 463.708ZM477.536 472.554C476.323 472.945 475.11 473.336 473.906 473.89C472.685 474.117 471.463 474.345 470.242 474.573C472.676 473.954 475.102 473.173 477.536 472.554ZM445.063 481.619C443.683 482.182 442.295 482.582 440.915 483.145C439.175 483.564 437.426 483.819 435.686 484.237C438.806 483.256 441.935 482.437 445.063 481.619ZM413.786 489.966C411.712 490.729 409.629 491.329 407.555 492.093C405.288 492.539 403.196 492.976 400.929 493.422C405.095 492.222 409.445 491.175 413.786 489.966ZM380.593 498.741C378.168 499.523 375.742 500.305 373.492 501.077C370.873 501.541 368.255 502.006 365.645 502.633C370.505 501.233 375.549 499.987 380.593 498.741ZM329.817 511.547C335.722 509.928 341.636 508.473 347.559 507.181C344.782 507.981 342.014 508.944 339.245 509.907C336.099 510.399 332.954 510.891 329.817 511.547ZM344.131 508.997C348.288 507.634 352.629 506.424 356.786 505.061C360.969 504.187 365.152 503.314 369.343 502.603C365.538 503.948 361.556 505.302 357.759 506.81L357.583 506.819C353.04 507.548 348.498 508.277 344.131 508.997ZM361.607 506.281C366.099 504.573 370.599 503.028 375.099 501.484C379.809 500.582 384.527 499.844 389.422 499.097C387.523 499.851 385.625 500.605 383.726 501.359C381.484 502.294 379.076 503.402 376.834 504.338C371.58 504.94 366.51 505.697 361.607 506.281ZM384.9 503.588C383.151 503.843 381.57 503.926 379.821 504.181C381.201 503.618 382.573 502.892 383.953 502.328C387.056 501.021 390.159 499.713 393.446 498.559C398.516 497.802 403.586 497.046 408.664 496.452C404.541 498.468 400.243 500.493 396.12 502.509C392.263 502.875 388.581 503.231 384.9 503.588ZM398.747 502.208C402.351 500.383 405.956 498.558 409.744 496.886C410.43 496.523 411.124 496.323 411.81 495.96C417.064 495.357 422.494 494.746 427.932 494.297C423.818 496.476 419.712 498.818 415.598 500.997C409.984 501.455 404.361 501.75 398.747 502.208ZM418.233 500.859C422.515 498.508 426.797 496.156 431.087 493.968C436.701 493.51 442.139 493.062 447.929 492.595C443.823 494.937 439.726 497.442 435.813 500.101C429.839 500.415 424.032 500.555 418.233 500.859ZM438.281 500.136C442.37 497.467 446.467 494.962 450.749 492.61C456.547 492.307 462.337 491.839 468.144 491.699C464.231 494.358 460.318 497.017 456.589 499.831C450.238 499.673 444.255 499.823 438.281 500.136ZM458.698 499.72C462.602 496.898 466.507 494.075 470.596 491.407C476.57 491.094 482.377 490.953 488.368 490.966C485.651 492.908 483.118 495.004 480.585 497.101C479.397 497.981 478.386 498.852 477.207 499.895C471.032 499.728 464.856 499.561 458.698 499.72ZM479.491 499.776C480.169 499.249 480.837 498.56 481.514 498.034C484.558 495.583 487.601 493.133 490.828 490.837C496.811 490.687 502.977 490.691 509.144 490.695C508.3 491.394 507.631 492.084 506.778 492.619C503.911 495.06 501.219 497.492 498.536 500.087C492.194 500.092 485.843 499.934 479.491 499.776ZM500.838 500.293C503.187 498.043 505.544 495.956 508.077 493.86C509.256 492.817 510.434 491.773 511.789 490.72C517.955 490.724 524.307 490.882 530.658 491.04C527.306 494.325 523.779 497.618 520.611 501.057C513.733 500.926 507.198 500.614 500.838 500.293ZM530.344 501.856C527.691 501.667 525.214 501.47 522.57 501.445C525.913 497.997 529.256 494.55 532.783 491.256C539.135 491.414 545.67 491.726 552.03 492.047C548.862 495.486 545.528 499.096 542.545 502.689C538.486 502.574 534.411 502.133 530.344 501.856ZM544.846 502.895C548.005 499.294 551.164 495.692 554.498 492.082C555.201 492.045 555.913 492.171 556.615 492.134C562.448 492.483 568.456 492.823 574.298 493.335C571.314 496.927 568.34 500.682 565.549 504.592C558.478 504.144 551.75 503.515 544.846 502.895ZM567.683 504.971C570.474 501.061 573.448 497.306 576.432 493.714C583.151 494.18 590.055 494.799 596.775 495.265C593.976 499.012 591.37 503.075 588.755 506.975C581.843 506.192 574.763 505.581 567.683 504.971ZM591.057 507.182C593.663 503.118 596.277 499.218 599.076 495.472C605.98 496.092 613.06 496.703 619.964 497.322C617.525 501.213 615.095 505.268 612.849 509.476C605.585 508.711 598.321 507.946 591.057 507.182ZM615.15 509.682C617.405 505.637 619.835 501.583 622.441 497.52C628.282 498.032 634.123 498.544 639.797 499.228C641.212 499.318 642.45 499.416 643.873 499.669C641.618 503.714 639.539 507.75 637.469 511.949C630.029 511.193 622.59 510.438 615.15 509.682Z" fill="url(#paint0_linear_849_24316)"/>
<defs>
<linearGradient id="paint0_linear_849_24316" x1="340.02" y1="201.916" x2="759.589" y2="917.264" gradientUnits="userSpaceOnUse">
<stop offset="0.0949651" stop-color="#7A99ED"/>
<stop offset="0.955225" stop-color="#FEFCFF"/>
</linearGradient>
</defs>
</svg>
