<?xml version="1.0" encoding="UTF-8"?>
<!DOCTYPE svg PUBLIC "-//W3C//DTD SVG 1.1//EN" "http://www.w3.org/Graphics/SVG/1.1/DTD/svg11.dtd">
<!-- Creator: CorelDRAW X6 -->
<svg xmlns="http://www.w3.org/2000/svg" xml:space="preserve" width="1800px" height="797px" version="1.1" style="shape-rendering:geometricPrecision; text-rendering:geometricPrecision; image-rendering:optimizeQuality; fill-rule:evenodd; clip-rule:evenodd"
viewBox="0 0 1800 797"
 xmlns:xlink="http://www.w3.org/1999/xlink">
 <defs>
  <style type="text/css">
   <![CDATA[
    .str11 {stroke:#00A859;stroke-width:2.08346}
    .str3 {stroke:#00AFEF;stroke-width:2.08346}
    .str10 {stroke:#3E4095;stroke-width:2.08346}
    .str7 {stroke:#5CC6D0;stroke-width:2.08346}
    .str13 {stroke:#718FC8;stroke-width:2.08346}
    .str29 {stroke:#A8CF45;stroke-width:2.08346}
    .str9 {stroke:#AFBD77;stroke-width:2.08346}
    .str8 {stroke:#BDBFC1;stroke-width:2.08346}
    .str6 {stroke:#CC93AD;stroke-width:2.08346}
    .str0 {stroke:#D2E28B;stroke-width:2.08346}
    .str5 {stroke:#ED2F59;stroke-width:2.08346}
    .str12 {stroke:#ED3237;stroke-width:2.08346}
    .str4 {stroke:#F06277;stroke-width:2.08346}
    .str1 {stroke:#F58634;stroke-width:2.08346}
    .str2 {stroke:#FFF212;stroke-width:2.08346}
    .str20 {stroke:#373435;stroke-width:7.99961}
    .str24 {stroke:#00A859;stroke-width:7.99961}
    .str17 {stroke:#00AFEF;stroke-width:7.99961}
    .str18 {stroke:#3E4095;stroke-width:7.99961}
    .str25 {stroke:#52658C;stroke-width:7.99961}
    .str22 {stroke:#5CC6D0;stroke-width:7.99961}
    .str23 {stroke:#91D8F7;stroke-width:7.99961}
    .str27 {stroke:#A8CF45;stroke-width:7.99961}
    .str14 {stroke:#AFBD77;stroke-width:7.99961}
    .str19 {stroke:#EC268F;stroke-width:7.99961}
    .str21 {stroke:#ED2F59;stroke-width:7.99961}
    .str15 {stroke:#F58634;stroke-width:7.99961}
    .str28 {stroke:#F5874F;stroke-width:7.99961}
    .str26 {stroke:#FFCC29;stroke-width:7.99961}
    .str16 {stroke:#FFF212;stroke-width:7.99961}
    .fil1 {fill:none}
    .fil12 {fill:#00A859}
    .fil4 {fill:#00AFEF}
    .fil11 {fill:#3E4095}
    .fil8 {fill:#5CC6D0}
    .fil14 {fill:#718FC8}
    .fil16 {fill:#A8CF45}
    .fil10 {fill:#AFBD77}
    .fil9 {fill:#BDBFC1}
    .fil7 {fill:#CC93AD}
    .fil0 {fill:#D2E28B}
    .fil6 {fill:#ED2F59}
    .fil13 {fill:#ED3237}
    .fil5 {fill:#F06277}
    .fil2 {fill:#F58634}
    .fil15 {fill:#FEFEFE}
    .fil3 {fill:#FFF212}
   ]]>
  </style>
 </defs>
 <g id="Layer_x0020_1">
  <metadata id="CorelCorpID_0Corel-Layer"/>
  <circle class="fil0 str0" cx="87" cy="523" r="7"/>
  <circle class="fil0 str0" cx="213" cy="595" r="7"/>
  <circle class="fil0 str0" cx="281" cy="531" r="7"/>
  <circle class="fil0 str0" cx="386" cy="540" r="7"/>
  <circle class="fil0 str0" cx="509" cy="564" r="7"/>
  <circle class="fil0 str0" cx="605" cy="540" r="7"/>
  <circle class="fil0 str0" cx="683" cy="498" r="7"/>
  <circle class="fil0 str0" cx="691" cy="595" r="7"/>
  <circle class="fil0 str0" cx="818" cy="523" r="7"/>
  <circle class="fil0 str0" cx="930" cy="474" r="7"/>
  <circle class="fil0 str0" cx="946" cy="595" r="7"/>
  <circle class="fil0 str0" cx="1022" cy="539" r="7"/>
  <circle class="fil0 str0" cx="1126" cy="556" r="7"/>
  <circle class="fil0 str0" cx="1177" cy="410" r="7"/>
  <circle class="fil0 str0" cx="1193" cy="498" r="7"/>
  <circle class="fil0 str0" cx="1255" cy="587" r="7"/>
  <circle class="fil0 str0" cx="347" cy="594" r="4"/>
  <circle class="fil0 str0" cx="521" cy="517" r="4"/>
  <circle class="fil0 str0" cx="783" cy="594" r="4"/>
  <circle class="fil0 str0" cx="972" cy="509" r="4"/>
  <circle class="fil0 str0" cx="1081" cy="606" r="4"/>
  <circle class="fil0 str0" cx="1240" cy="693" r="4"/>
  <circle class="fil0 str0" cx="1322" cy="775" r="4"/>
  <circle class="fil0 str0" cx="1402" cy="734" r="4"/>
  <circle class="fil0 str0" cx="1321" cy="598" r="4"/>
  <circle class="fil0 str0" cx="1713" cy="774" r="4"/>
  <circle class="fil0 str0" cx="1632" cy="720" r="4"/>
  <circle class="fil0 str0" cx="1698" cy="612" r="4"/>
  <circle class="fil0 str0" cx="1602" cy="590" r="4"/>
  <circle class="fil0 str0" cx="1487" cy="531" r="4"/>
  <circle class="fil0 str0" cx="1711" cy="478" r="4"/>
  <circle class="fil0 str0" cx="1537" cy="439" r="7"/>
  <circle class="fil0 str0" cx="1409" cy="397" r="4"/>
  <circle class="fil0 str0" cx="1248" cy="454" r="4"/>
  <circle class="fil0 str0" cx="1594" cy="273" r="4"/>
  <circle class="fil0 str0" cx="1630" cy="193" r="4"/>
  <circle class="fil0 str0" cx="1732" cy="126" r="4"/>
  <line class="fil1 str0" x1="28" y1="542" x2="80" y2= "525" />
  <line class="fil1 str0" x1="94" y1="526" x2="207" y2= "592" />
  <line class="fil1 str0" x1="218" y1="590" x2="276" y2= "536" />
  <line class="fil1 str0" x1="379" y1="538" x2="289" y2= "531" />
  <line class="fil1 str0" x1="393" y1="540" x2="502" y2= "564" />
  <line class="fil1 str0" x1="517" y1="564" x2="598" y2= "542" />
  <line class="fil1 str0" x1="611" y1="536" x2="677" y2= "501" />
  <line class="fil1 str0" x1="683" y1="505" x2="691" y2= "588" />
  <line class="fil1 str0" x1="810" y1="526" x2="698" y2= "592" />
  <line class="fil1 str0" x1="923" y1="476" x2="825" y2= "520" />
  <line class="fil1 str0" x1="930" y1="482" x2="943" y2= "589" />
  <line class="fil1 str0" x1="1016" y1="544" x2="951" y2= "590" />
  <line class="fil1 str0" x1="1029" y1="539" x2="1118" y2= "555" />
  <line class="fil1 str0" x1="1177" y1="417" x2="1128" y2= "549" />
  <line class="fil1 str0" x1="1193" y1="491" x2="1179" y2= "417" />
  <line class="fil1 str0" x1="1251" y1="581" x2="1197" y2= "504" />
  <circle class="fil2 str1" cx="1377" cy="767" r="7"/>
  <circle class="fil3 str2" cx="1423" cy="611" r="7"/>
  <circle class="fil4 str3" cx="1370" cy="491" r="7"/>
  <circle class="fil2 str1" cx="1661" cy="572" r="7"/>
  <circle class="fil3 str2" cx="1677" cy="698" r="7"/>
  <circle class="fil5 str4" cx="1744" cy="603" r="7"/>
  <circle class="fil6 str5" cx="1761" cy="426" r="7"/>
  <circle class="fil7 str6" cx="1652" cy="379" r="7"/>
  <circle class="fil8 str7" cx="1715" cy="285" r="7"/>
  <circle class="fil9 str8" cx="1473" cy="257" r="7"/>
  <circle class="fil8 str7" cx="1543" cy="316" r="7"/>
  <circle class="fil8 str7" cx="1715" cy="285" r="7"/>
  <circle class="fil10 str9" cx="1551" cy="178" r="7"/>
  <circle class="fil11 str10" cx="1769" cy="126" r="7"/>
  <circle class="fil12 str11" cx="1699" cy="87" r="7"/>
  <line class="fil1 str0" x1="1320" y1="642" x2="1260" y2= "592" />
  <polyline class="fil1 str9" points="1423,619 1427,648 1331,646 "/>
  <line class="fil1 str9" x1="1427" y1="648" x2="1467" y2= "652" />
  <line class="fil1 str9" x1="1373" y1="761" x2="1328" y2= "656" />
  <line class="fil1 str9" x1="1248" y1="458" x2="1324" y2= "643" />
  <polyline class="fil1 str9" points="1423,604 1364,354 1370,484 "/>
  <line class="fil1 str9" x1="1252" y1="454" x2="1356" y2= "353" />
  <line class="fil1 str9" x1="1467" y1="643" x2="1374" y2= "497" />
  <polyline class="fil1 str9" points="1670,698 1482,653 1539,677 "/>
  <polyline class="fil1 str9" points="1673,692 1575,510 1655,567 "/>
  <circle class="fil13 str12" cx="1571" cy="507" r="7"/>
  <line class="fil1 str9" x1="1668" y1="574" x2="1737" y2= "601" />
  <line class="fil1 str9" x1="1741" y1="610" x2="1681" y2= "692" />
  <line class="fil1 str9" x1="1750" y1="790" x2="1778" y2= "745" />
  <line class="fil1 str9" x1="1380" y1="774" x2="1397" y2= "800" />
  <line class="fil1 str9" x1="1645" y1="385" x2="1543" y2= "436" />
  <line class="fil1 str9" x1="1649" y1="386" x2="1575" y2= "501" />
  <line class="fil1 str9" x1="1655" y1="386" x2="1661" y2= "564" />
  <line class="fil1 str9" x1="1761" y1="433" x2="1780" y2= "534" />
  <line class="fil1 str9" x1="1659" y1="374" x2="1711" y2= "292" />
  <line class="fil1 str9" x1="1715" y1="293" x2="1744" y2= "596" />
  <line class="fil1 str9" x1="1369" y1="343" x2="1467" y2= "262" />
  <line class="fil1 str9" x1="1476" y1="264" x2="1534" y2= "432" />
  <line class="fil1 str9" x1="1543" y1="323" x2="1537" y2= "432" />
  <line class="fil1 str9" x1="1538" y1="309" x2="1478" y2= "262" />
  <line class="fil1 str9" x1="1551" y1="185" x2="1547" y2= "310" />
  <line class="fil1 str9" x1="1557" y1="182" x2="1630" y2= "247" />
  <line class="fil1 str9" x1="1547" y1="310" x2="1591" y2= "275" />
  <line class="fil1 str9" x1="1765" y1="132" x2="1597" y2= "271" />
  <line class="fil1 str9" x1="1773" y1="133" x2="1780" y2= "146" />
  <line class="fil1 str9" x1="1626" y1="193" x2="1558" y2= "177" />
  <line class="fil1 str9" x1="1633" y1="188" x2="1695" y2= "94" />
  <line class="fil1 str9" x1="1707" y1="82" x2="1735" y2= "71" />
  <line class="fil1 str9" x1="1733" y1="46" x2="1704" y2= "82" />
  <polyline class="fil1 str9" points="1411,401 1487,527 1594,277 1602,586 1630,196 "/>
  <line class="fil1 str9" x1="1373" y1="481" x2="1407" y2= "401" />
  <line class="fil1 str9" x1="1378" y1="491" x2="1530" y2= "442" />
  <polyline class="fil1 str9" points="1365,500 1323,595 1326,565 "/>
  <line class="fil1 str9" x1="1315" y1="531" x2="1250" y2= "457" />
  <line class="fil1 str9" x1="1255" y1="580" x2="1248" y2= "458" />
  <line class="fil1 str9" x1="1260" y1="592" x2="1400" y2= "654" />
  <line class="fil1 str9" x1="1487" y1="535" x2="1474" y2= "642" />
  <line class="fil1 str9" x1="1324" y1="655" x2="1322" y2= "771" />
  <line class="fil1 str9" x1="1370" y1="769" x2="1326" y2= "775" />
  <line class="fil1 str9" x1="1319" y1="653" x2="1243" y2= "691" />
  <line class="fil1 str9" x1="1196" y1="637" x2="1238" y2= "690" />
  <line class="fil1 str9" x1="1084" y1="606" x2="1166" y2= "619" />
  <line class="fil1 str9" x1="1077" y1="606" x2="975" y2= "512" />
  <line class="fil1 str9" x1="787" y1="594" x2="968" y2= "509" />
  <line class="fil1 str9" x1="525" y1="517" x2="780" y2= "594" />
  <line class="fil1 str9" x1="351" y1="594" x2="518" y2= "519" />
  <line class="fil1 str9" x1="1405" y1="730" x2="1433" y2= "649" />
  <line class="fil1 str9" x1="1441" y1="792" x2="1404" y2= "737" />
  <line class="fil1 str9" x1="1385" y1="772" x2="1429" y2= "800" />
  <line class="fil1 str9" x1="1495" y1="800" x2="1548" y2= "705" />
  <line class="fil1 str9" x1="1541" y1="751" x2="1498" y2= "800" />
  <line class="fil1 str9" x1="1553" y1="755" x2="1578" y2= "794" />
  <line class="fil1 str9" x1="1575" y1="695" x2="1629" y2= "718" />
  <line class="fil1 str9" x1="1636" y1="716" x2="1670" y2= "701" />
  <line class="fil1 str9" x1="1641" y1="786" x2="1674" y2= "705" />
  <line class="fil1 str9" x1="1679" y1="800" x2="1710" y2= "776" />
  <line class="fil1 str9" x1="1717" y1="771" x2="1758" y2= "729" />
  <line class="fil1 str9" x1="1686" y1="696" x2="1749" y2= "685" />
  <line class="fil1 str9" x1="1702" y1="612" x2="1758" y2= "655" />
  <line class="fil1 str9" x1="1704" y1="558" x2="1700" y2= "607" />
  <line class="fil1 str9" x1="1752" y1="598" x2="1778" y2= "570" />
  <line class="fil1 str9" x1="1711" y1="481" x2="1707" y2= "527" />
  <line class="fil1 str9" x1="1714" y1="478" x2="1778" y2= "492" />
  <polyline class="fil1 str9" points="1780,247 1720,280 1780,220 "/>
  <line class="fil1 str9" x1="1732" y1="130" x2="1711" y2= "474" />
  <line class="fil1 str9" x1="1736" y1="126" x2="1762" y2= "126" />
  <line class="fil1 str9" x1="1711" y1="474" x2="1631" y2= "196" />
  <line class="fil1 str9" x1="1602" y1="593" x2="1567" y2= "664" />
  <circle class="fil14 str13" cx="1473" cy="647" r="7"/>
  <circle class="fil15 str14" cx="882" cy="585" r="16"/>
  <circle class="fil15 str14" cx="1087" cy="483" r="16"/>
  <circle class="fil15 str14" cx="1186" cy="622" r="16"/>
  <circle class="fil15 str15" cx="1329" cy="544" r="16"/>
  <circle class="fil15 str16" cx="1519" cy="598" r="16"/>
  <circle class="fil15 str17" cx="1558" cy="685" r="16"/>
  <circle class="fil15 str18" cx="1617" cy="507" r="16"/>
  <circle class="fil15 str19" cx="1495" cy="458" r="16"/>
  <circle class="fil15 str20" cx="1716" cy="544" r="16"/>
  <circle class="fil15 str21" cx="1741" cy="215" r="16"/>
  <circle class="fil15 str22" cx="1629" cy="125" r="16"/>
  <circle class="fil15 str23" cx="1605" cy="345" r="16"/>
  <circle class="fil15 str24" cx="1414" cy="306" r="16"/>
  <circle class="fil15 str25" cx="1425" cy="664" r="28"/>
  <circle class="fil15 str26" cx="1652" cy="272" r="28"/>
  <circle class="fil15 str27" cx="1773" cy="346" r="28"/>
  <circle class="fil15 str28" cx="1806" cy="691" r="55"/>
  <circle class="fil15 str19" cx="1789" cy="44" r="55"/>
  <circle class="fil15 str21" cx="1617" cy="840" r="55"/>
  <line class="fil1 str14" x1="900" y1="576" x2="1071" y2= "492" />
  <line class="fil1 str14" x1="1096" y1="496" x2="1177" y2= "610" />
  <line class="fil1 str14" x1="1202" y1="611" x2="1311" y2= "555" />
  <line class="fil1 str14" x1="1341" y1="560" x2="1403" y2= "642" />
  <line class="fil1 str14" x1="1502" y1="611" x2="1453" y2= "648" />
  <line class="fil1 str14" x1="1406" y1="325" x2="1334" y2= "530" />
  <line class="fil1 str14" x1="1423" y1="324" x2="1488" y2= "445" />
  <line class="fil1 str14" x1="1497" y1="479" x2="1513" y2= "578" />
  <line class="fil1 str14" x1="1524" y1="577" x2="1598" y2= "365" />
  <line class="fil1 str14" x1="1606" y1="366" x2="1613" y2= "488" />
  <line class="fil1 str14" x1="1633" y1="494" x2="1750" y2= "370" />
  <line class="fil1 str14" x1="1723" y1="525" x2="1767" y2= "378" />
  <line class="fil1 str14" x1="1732" y1="532" x2="1780" y2= "495" />
  <line class="fil1 str14" x1="1529" y1="616" x2="1552" y2= "665" />
  <line class="fil1 str14" x1="1572" y1="669" x2="1704" y2= "561" />
  <line class="fil1 str14" x1="1449" y1="685" x2="1570" y2= "800" />
  <line class="fil1 str14" x1="1565" y1="705" x2="1596" y2= "784" />
  <line class="fil1 str14" x1="1574" y1="699" x2="1691" y2= "800" />
  <line class="fil1 str14" x1="1434" y1="309" x2="1585" y2= "344" />
  <line class="fil1 str14" x1="1625" y1="348" x2="1741" y2= "349" />
  <line class="fil1 str14" x1="1632" y1="297" x2="1617" y2= "330" />
  <line class="fil1 str14" x1="1745" y1="236" x2="1769" y2= "314" />
  <line class="fil1 str14" x1="1678" y1="250" x2="1722" y2= "223" />
  <line class="fil1 str14" x1="1632" y1="145" x2="1647" y2= "238" />
  <line class="fil1 str14" x1="1645" y1="136" x2="1725" y2= "204" />
  <line class="fil1 str14" x1="1772" y1="102" x2="1744" y2= "195" />
  <circle class="fil6 str5" cx="1361" cy="349" r="7"/>
  <circle class="fil16 str29" cx="1548" cy="748" r="7"/>
  <circle class="fil7 str6" cx="1324" cy="648" r="7"/>
 </g>
</svg>
