<?xml version="1.0" encoding="UTF-8"?>
<!DOCTYPE svg PUBLIC "-//W3C//DTD SVG 1.1//EN" "http://www.w3.org/Graphics/SVG/1.1/DTD/svg11.dtd">
<!-- Creator: CorelDRAW X6 -->
<svg xmlns="http://www.w3.org/2000/svg" xml:space="preserve" width="118.449mm" height="98.9752mm" version="1.1" style="shape-rendering:geometricPrecision; text-rendering:geometricPrecision; image-rendering:optimizeQuality; fill-rule:evenodd; clip-rule:evenodd"
viewBox="0 0 11845 9898"
 xmlns:xlink="http://www.w3.org/1999/xlink">
 <defs>
  <style type="text/css">
   <![CDATA[
    .fil0 {fill:#E0ECCD;fill-opacity:0.400000}
   ]]>
  </style>
 </defs>
 <g id="Layer_x0020_1">
  <metadata id="CorelCorpID_0Corel-Layer"/>
  <path class="fil0" d="M5129 6346c150,637 446,1259 857,1803 13,17 27,35 41,52 401,515 911,968 1479,1312l10 -14c-585,-354 -1108,-823 -1514,-1359 -409,-541 -706,-1162 -854,-1796 -178,-757 -122,-1481 153,-2054 63,6 127,13 192,19 -240,584 -266,1308 -55,2064 173,626 475,1213 877,1730 429,553 974,1024 1603,1376l9 -16c-1212,-677 -2112,-1805 -2471,-3095 -209,-753 -183,-1475 57,-2057 613,56 1234,74 1817,-105 312,-96 604,-247 859,-442 45,-32 91,-63 134,-97 45,-30 89,-62 133,-96 47,-30 91,-63 134,-96 47,-30 91,-62 135,-96 47,-30 94,-63 137,-96 47,-30 92,-62 136,-95 47,-30 94,-62 139,-95l1 -1c37,-23 72,-47 106,-71 10,-7 20,-15 31,-22 25,-17 53,-33 78,-50 21,-15 44,-30 65,-45 14,-9 28,-18 44,-27 34,-23 68,-45 102,-69 1,-1 4,-2 6,-3 48,-29 95,-61 143,-92 51,-30 103,-62 152,-95 43,-24 87,-50 128,-76 9,-6 17,-11 26,-17 26,-14 53,-29 79,-43 27,-15 54,-32 80,-49 7,-5 16,-8 23,-12 44,-23 88,-48 133,-74 54,-25 109,-53 162,-82 343,-150 655,-369 885,-621 278,-306 430,-652 439,-1002l-19 0c-10,346 -160,688 -435,991 -186,205 -428,389 -696,529 195,-125 375,-275 532,-443 326,-343 534,-740 590,-1117l-19 -2c-54,373 -261,766 -584,1107 -198,210 -432,392 -684,534 215,-147 419,-327 599,-531 318,-357 557,-774 658,-1147l-18 -5c-101,370 -340,786 -654,1140 -204,229 -434,427 -679,583 -3,2 -6,3 -9,3 -4,2 -9,3 -13,5 215,-161 422,-358 615,-590 307,-363 573,-792 729,-1177l-16 -6c-155,380 -421,807 -725,1170 -209,247 -430,456 -661,622 -13,5 -27,10 -40,15 208,-171 412,-381 614,-636 371,-461 660,-955 798,-1207l-15 -8c-138,253 -427,745 -796,1206 -214,267 -427,485 -646,660 -17,6 -33,11 -50,17 201,-180 399,-401 609,-677 216,-282 426,-591 610,-863 91,-134 177,-262 257,-376l-12 -8c-81,114 -167,240 -258,376 -184,272 -394,581 -610,863 -219,286 -424,514 -632,697 -19,7 -38,12 -56,18 235,-229 432,-483 602,-714 104,-141 208,-290 309,-434 222,-313 429,-608 627,-836l-11 -9c-195,228 -403,523 -625,838 -101,144 -207,291 -309,434 -174,238 -378,500 -620,732 -20,7 -40,12 -59,17 228,-241 421,-508 592,-750 42,-59 83,-120 126,-180 288,-413 586,-840 881,-1120l-9 -9c-295,282 -595,710 -883,1123 -42,60 -85,121 -126,180 -174,248 -372,520 -606,765 -22,5 -42,12 -64,17 207,-234 391,-498 583,-784 325,-479 691,-1020 1076,-1332l-8 -9c-386,312 -754,856 -1079,1335 -196,291 -382,558 -594,796 -23,5 -46,12 -69,18 208,-254 391,-533 569,-806l7 -10c627,-960 921,-1207 1146,-1363l-6 -9c-199,134 -398,330 -613,600 -193,242 -373,509 -539,764l-7 10c-179,277 -364,560 -577,816 -23,5 -48,11 -71,16 186,-241 350,-501 510,-757l56 -89c597,-944 949,-1235 1217,-1395l-6 -9c-218,131 -435,328 -662,604 -217,264 -413,563 -558,794l-56 89c-163,258 -328,522 -517,765 -25,5 -49,11 -74,16 167,-231 316,-476 462,-717 33,-53 64,-105 96,-158 315,-516 747,-1145 1287,-1426l-5 -8c-242,125 -475,323 -713,607 -181,215 -364,476 -577,823 -32,53 -64,105 -96,158 -147,244 -298,493 -468,725 -25,5 -51,10 -76,15 152,-220 288,-454 420,-682 42,-72 85,-146 128,-219 610,-1031 1066,-1326 1357,-1458l-3 -8c-264,119 -513,319 -764,608 -195,224 -384,495 -596,853 -43,73 -86,147 -128,219 -135,230 -271,466 -425,690 -26,6 -52,10 -78,14 137,-213 262,-434 385,-653 51,-90 104,-184 155,-275 295,-512 763,-1222 1426,-1489l-3 -7c-666,267 -1135,980 -1430,1492 -52,92 -105,184 -155,274 -124,220 -249,445 -389,659 -26,4 -52,10 -80,14 126,-205 241,-416 354,-626 58,-107 118,-218 178,-327 210,-374 417,-673 633,-910 271,-299 561,-504 864,-610l-2 -3c-303,108 -594,313 -867,612 -217,238 -424,536 -634,912 -60,109 -121,219 -178,327 -114,210 -229,424 -356,631 -28,4 -54,10 -81,14 116,-198 221,-401 326,-601 64,-124 131,-251 198,-375 469,-861 982,-1368 1567,-1552l-2 -7c-586,184 -1100,692 -1571,1555 -67,124 -134,251 -198,375 -106,201 -211,406 -328,605 -28,4 -55,8 -83,13 106,-190 205,-385 300,-578 69,-140 141,-282 216,-422 213,-400 433,-716 671,-969 295,-312 620,-518 966,-615l-2 -5c-347,96 -673,304 -969,616 -239,253 -459,569 -672,970 -74,138 -145,282 -216,422 -97,194 -196,390 -303,582 -28,4 -57,9 -84,13 98,-184 189,-371 280,-557 74,-154 151,-312 231,-466 214,-412 440,-739 690,-998 308,-319 651,-527 1017,-617l0 -6c-368,90 -711,299 -1020,619 -251,260 -476,587 -691,999 -80,153 -157,312 -231,466 -90,186 -182,374 -281,560 -159,22 -318,42 -474,63 -178,22 -362,46 -541,72 -332,50 -739,125 -1137,271 -101,29 -198,62 -291,96 -79,24 -156,49 -229,76 -101,29 -198,60 -290,96 -80,24 -156,49 -230,75 -90,26 -178,54 -261,83 -93,26 -182,54 -269,85 -87,24 -171,51 -251,79 -94,26 -185,53 -273,84 -91,24 -181,51 -267,82 -93,24 -182,51 -269,81 -93,24 -184,50 -272,80 -96,25 -188,50 -278,80 -94,23 -187,49 -278,77 -94,22 -187,47 -276,76 -99,22 -196,48 -290,76 -99,22 -194,45 -288,72 -225,47 -439,107 -641,181 -383,141 -744,345 -1041,589 -320,264 -565,567 -728,903 -153,313 -237,667 -254,1049 -16,345 25,709 120,1081 182,706 528,1364 863,2001l4 -2c-335,-637 -682,-1295 -863,-2001 -95,-371 -136,-735 -120,-1079 17,-382 103,-735 254,-1047 163,-335 407,-639 727,-901 297,-245 656,-448 1039,-589 184,-68 380,-124 583,-170 -22,7 -43,13 -65,20 -102,33 -203,69 -300,109 -778,319 -1390,884 -1681,1551 -138,315 -211,666 -218,1043 -6,344 42,702 144,1067 189,671 521,1285 904,1961l6 -3c-383,-676 -715,-1290 -904,-1960 -102,-363 -150,-721 -144,-1066 7,-376 80,-727 216,-1040 293,-666 905,-1230 1681,-1548 96,-40 197,-77 300,-109 43,-13 87,-27 132,-39 36,-7 74,-15 112,-21 -10,3 -20,7 -30,10 -101,36 -200,76 -296,120 -747,339 -1329,926 -1594,1610 -123,316 -183,664 -180,1036 3,342 61,696 169,1053 210,685 582,1325 944,1922l6 -3c-362,-596 -734,-1235 -943,-1920 -109,-356 -166,-709 -169,-1050 -3,-371 57,-719 180,-1034 266,-684 846,-1270 1592,-1607 95,-42 194,-84 295,-120 23,-8 46,-16 69,-23 41,-8 81,-14 122,-20 -92,37 -184,78 -271,121 -718,359 -1268,966 -1508,1670 -108,316 -157,663 -142,1030 13,340 78,689 194,1039 233,700 631,1339 986,1882l7 -3c-355,-543 -753,-1180 -985,-1881 -116,-349 -181,-698 -194,-1037 -14,-365 34,-710 142,-1027 240,-702 788,-1308 1505,-1665 93,-47 191,-91 290,-129 3,-2 6,-2 9,-3 44,-7 87,-12 133,-17 -73,33 -146,70 -215,107 -691,377 -1209,1007 -1421,1729 -94,318 -129,661 -106,1023 22,339 95,683 219,1026 245,682 656,1314 1027,1842l7 -5c-371,-528 -782,-1159 -1025,-1840 -122,-342 -195,-686 -219,-1023 -24,-361 11,-704 104,-1021 212,-720 729,-1348 1417,-1724 77,-42 156,-82 238,-118 19,-2 38,-5 57,-6 28,-3 54,-6 82,-7 -54,28 -109,58 -161,89 -335,199 -622,459 -854,771 -228,308 -389,650 -482,1017 -153,617 -91,1337 175,2028 269,697 711,1329 1067,1803l7 -5c-356,-472 -798,-1104 -1067,-1800 -266,-689 -328,-1407 -175,-2022 91,-367 253,-708 479,-1014 231,-310 517,-570 851,-768 58,-35 118,-67 178,-98 47,-4 95,-8 143,-10 -37,21 -73,44 -108,67 -325,210 -600,481 -817,806 -210,315 -356,665 -431,1041 -125,621 -41,1335 237,2008 132,319 374,820 966,1583 46,59 93,117 141,178l8 -6c-334,-413 -811,-1045 -1108,-1760 -278,-672 -362,-1383 -237,-2002 76,-374 220,-723 429,-1038 215,-323 489,-593 814,-803 40,-26 81,-51 124,-76 48,-3 98,-5 148,-7 -20,14 -38,26 -57,39 -316,221 -579,504 -780,842 -193,324 -322,681 -381,1065 -98,625 8,1331 299,1986 188,421 444,840 796,1293 108,140 226,282 354,429l9 -6c-540,-623 -904,-1169 -1148,-1719 -291,-654 -396,-1359 -299,-1981 60,-380 188,-738 380,-1060 201,-337 461,-618 777,-839 23,-16 47,-33 71,-48 50,-1 101,-3 152,-4 -3,3 -7,5 -10,7 -602,455 -984,1154 -1074,1965 -70,628 58,1327 361,1966 170,358 395,718 683,1087 152,196 321,393 509,595l8 -7c-541,-583 -929,-1132 -1189,-1680 -303,-638 -430,-1335 -361,-1961 90,-809 470,-1503 1070,-1957 7,-6 16,-11 23,-16 51,0 103,0 156,0 -561,474 -899,1181 -954,1996 -43,640 104,1313 423,1947 155,308 348,610 584,913 189,242 404,485 648,729l10 -9c-548,-552 -951,-1088 -1229,-1640 -319,-632 -465,-1302 -423,-1940 55,-817 395,-1524 960,-1997 53,1 106,3 160,4 -516,492 -808,1202 -827,2016 -14,641 154,1308 485,1925 138,256 305,512 500,762 222,285 480,567 771,839l10 -9c-549,-514 -976,-1053 -1270,-1599 -331,-616 -499,-1280 -483,-1920 18,-814 313,-1525 831,-2015 54,3 109,5 163,8 -471,508 -721,1223 -702,2032 14,643 204,1302 547,1905 121,213 262,423 421,628 251,324 549,638 892,936l10 -10c-556,-486 -997,-1010 -1310,-1559 -344,-602 -531,-1258 -545,-1898 -17,-809 233,-1524 707,-2029 22,2 46,3 68,5 32,2 66,5 99,7 -428,523 -635,1239 -583,2042 42,643 253,1296 609,1885 104,172 220,340 347,504 281,362 619,703 1008,1020l10 -12c-564,-459 -1019,-970 -1351,-1520 -356,-588 -566,-1237 -607,-1878 -52,-803 155,-1518 586,-2039 58,5 115,9 172,14 -383,536 -553,1266 -468,2050 70,642 301,1287 671,1864 85,131 176,261 274,388 310,400 687,766 1122,1097l10 -12c-571,-433 -1040,-930 -1392,-1479 -369,-575 -600,-1217 -670,-1859 -84,-783 86,-1512 470,-2045 59,5 118,12 177,17 -344,549 -474,1279 -358,2055 96,641 351,1279 733,1844 60,90 125,179 194,266 341,439 765,841 1243,1178l10 -13c-571,-401 -1066,-899 -1433,-1439 -381,-562 -634,-1198 -732,-1837 -116,-775 14,-1503 360,-2049 61,6 121,13 182,19 -307,563 -400,1290 -252,2057 124,640 399,1270 795,1823 38,53 77,105 118,159 371,477 838,905 1360,1246l11 -14c-579,-377 -1088,-861 -1474,-1400 -395,-552 -670,-1179 -792,-1817 -148,-766 -55,-1492 252,-2052 62,6 124,13 186,19 -273,565 -330,1292 -151,2051l3 -10zm173 -2063c17,-36 35,-70 53,-104 62,6 122,11 184,18 -16,34 -32,70 -47,105 -63,-6 -127,-13 -190,-19zm-2032 -125c36,-14 72,-27 108,-40 38,-8 76,-14 113,-20 -34,14 -68,29 -100,44 -41,5 -80,11 -121,16l0 0zm-32 4c-36,6 -71,12 -106,18 33,-11 68,-22 102,-33 32,-7 65,-15 99,-21 -33,11 -65,24 -95,36zm6243 -1542c-15,20 -29,40 -44,61 -25,5 -48,12 -72,18 15,-20 29,-42 44,-62 22,-4 42,-8 64,-13 1,-1 6,-2 9,-3l-1 -1zm633 -185c-6,4 -11,8 -17,12 -9,3 -16,8 -24,11 6,-4 11,-9 17,-15 7,-3 16,-5 23,-8 0,0 0,0 1,0zm-6154 1555c42,-5 83,-11 125,-15 -20,11 -41,23 -61,35 -11,8 -24,14 -36,21 -45,4 -89,8 -133,11 34,-18 69,-36 104,-53l1 1zm-131 54c-42,5 -85,9 -126,14 34,-16 69,-31 105,-46 39,-6 79,-13 119,-19 -34,17 -67,34 -99,51l1 0zm5507 -1323c-15,20 -29,40 -44,61 -23,7 -48,12 -72,18 15,-20 29,-42 42,-62 26,-7 51,-11 74,-16l0 -1zm-491 557c4,-3 9,-6 11,-10 6,-3 12,-6 19,-9 -3,2 -4,4 -7,6 -9,3 -16,9 -23,14l0 -1zm-3540 670c25,-30 50,-60 76,-89 52,3 104,4 156,7 -10,13 -21,26 -30,38 -14,17 -26,36 -38,53 -54,-3 -109,-7 -163,-9l-1 0zm-882 -10c-45,2 -91,5 -136,9 33,-20 66,-38 100,-58 42,-5 85,-9 129,-12 -21,14 -41,27 -62,41 -8,7 -20,15 -30,21l-1 -1zm39 -10c27,-18 55,-36 82,-53 44,-4 89,-8 134,-10 -3,3 -7,5 -10,7 -27,19 -54,39 -79,60 -47,1 -94,4 -141,6 4,-4 8,-7 13,-10l1 0zm5150 -1183c7,-6 13,-12 20,-16 9,-5 19,-8 27,-13 -6,4 -13,9 -18,15 -10,3 -19,8 -29,14zm-4730 1081c-10,7 -18,15 -28,22 -47,1 -92,4 -138,6 31,-21 62,-42 95,-62 42,-4 86,-7 130,-10 -20,14 -40,28 -59,43l0 1zm9 12c25,-19 52,-39 78,-57 45,-2 89,-5 136,-7 -3,3 -6,4 -10,7 -25,21 -51,43 -76,64 -48,0 -95,1 -142,2 6,-3 10,-6 14,-9zm184 -128c42,-4 85,-7 127,-11 -30,21 -58,43 -86,64 -45,2 -89,3 -133,7 30,-21 61,-41 92,-60zm263 -83c41,-4 82,-7 123,-11 -28,21 -57,42 -83,64 -44,2 -88,5 -130,7 30,-21 61,-41 91,-60l-1 0zm260 -83c39,-5 80,-8 121,-12 -28,21 -55,40 -82,63 -42,2 -85,5 -127,8 28,-20 58,-39 88,-59zm260 -83c38,-5 77,-8 117,-12 -27,19 -54,40 -80,61 -41,2 -83,4 -124,8 30,-20 58,-39 88,-57l-1 0zm257 -84c39,-5 79,-8 118,-13 -27,19 -54,39 -79,60 -41,2 -82,6 -123,8 27,-18 55,-36 84,-54l0 -1zm3247 -491c-7,6 -13,12 -20,18 -17,8 -34,17 -52,25 13,-13 25,-25 38,-38 17,-6 34,-14 50,-21 -6,6 -11,12 -17,16l1 0zm-206 122c-10,10 -21,21 -31,31 -19,8 -37,17 -57,25 14,-15 26,-29 40,-44 20,-8 39,-15 59,-23 -4,3 -8,6 -11,10l0 1zm-208 122c-13,13 -25,26 -38,39 -20,9 -42,17 -62,25 14,-16 28,-32 41,-49 22,-7 42,-15 63,-23 -1,3 -3,4 -5,7l1 1zm-3472 630c20,-19 41,-40 62,-57 7,-6 14,-12 21,-18 45,-1 92,-1 139,0 1,0 3,0 3,0 -27,26 -52,53 -77,80 -49,-2 -97,-3 -144,-3 -3,0 -3,-1 -4,-1l0 -1zm-155 -13c24,-21 48,-40 72,-59 45,-2 91,-3 138,-5 -1,1 -4,3 -6,6 -25,22 -49,46 -73,70 -48,0 -95,0 -144,-1 4,-3 8,-7 13,-12l0 1zm417 -103c-10,9 -20,19 -29,29 -4,0 -9,0 -13,-1 -43,-1 -85,0 -128,1 28,-24 56,-47 84,-70 44,-2 89,-3 135,-4 -17,15 -32,29 -49,44l0 1zm-13 40c48,0 97,2 147,2 -25,28 -48,57 -72,86 -52,-3 -101,-4 -153,-7 25,-28 52,-54 78,-80l0 -1zm10 -10c6,-6 11,-12 17,-16 21,-21 42,-40 64,-59 32,0 66,-1 98,-1 13,-1 26,0 41,1 -1,1 -1,1 -3,2 -25,25 -49,51 -72,77 -49,-2 -97,-3 -145,-3l0 -1zm3298 -643c-22,8 -45,15 -68,22 15,-19 29,-38 43,-56 23,-7 46,-12 68,-19 -14,17 -29,36 -43,54l0 -1zm56 -57c22,-7 43,-13 65,-20 -14,16 -28,33 -43,49 -22,8 -43,16 -65,23 14,-17 29,-35 43,-52zm-135 82c-23,7 -48,15 -71,22 15,-20 29,-40 44,-61 3,0 6,-2 7,-2 22,-5 42,-11 64,-17 -14,20 -29,39 -44,58zm-15 20c-15,19 -29,36 -44,55 -23,8 -46,16 -68,23 15,-19 29,-38 44,-58 23,-7 46,-14 68,-20zm-61 74c-11,13 -23,28 -35,41 -3,3 -6,6 -8,10 -22,8 -45,18 -66,24 15,-17 29,-36 44,-54 22,-7 43,-15 65,-21zm-61 6c-23,8 -48,15 -71,22 15,-20 29,-40 44,-61 3,-2 7,-2 10,-2 20,-5 41,-10 61,-17 -14,19 -29,39 -44,58zm-14 19c-15,19 -29,36 -44,55 -23,8 -46,16 -69,23 15,-19 29,-38 44,-58 23,-7 46,-14 69,-20zm-59 72c-1,1 -3,3 -4,4 -14,16 -26,31 -40,47 -21,9 -45,18 -66,26 15,-17 29,-36 43,-54 23,-8 46,-16 68,-23l-1 0zm-119 80c-75,28 -151,52 -228,73 -518,141 -1069,125 -1603,109 -218,-6 -442,-12 -662,-9 -16,1 -31,0 -47,1 25,-22 52,-44 82,-68 60,-3 121,-6 183,-8 215,-7 436,-2 649,1 510,9 1037,18 1533,-115 46,-12 91,-26 136,-41 -12,20 -28,38 -43,56l0 1zm-2493 184c218,-5 443,3 661,9 534,16 1086,32 1606,-111 71,-19 142,-42 211,-67 -14,17 -29,35 -44,51 -99,40 -200,76 -303,105 -541,151 -1119,128 -1676,105 -196,-8 -396,-16 -594,-17 25,-24 50,-48 80,-74 20,-1 41,-1 60,-2l-1 1zm-166 75c-18,0 -34,0 -51,0 -29,0 -57,0 -86,2 27,-24 55,-46 83,-68 44,-2 88,-5 133,-6 -27,24 -53,47 -78,72l-1 0zm1 26c6,-4 10,-10 15,-15 201,0 405,9 604,16 559,23 1137,46 1681,-105 97,-27 192,-59 284,-97 -14,16 -29,32 -43,48 -122,55 -249,102 -379,138 -566,161 -1169,129 -1751,99 -155,-8 -313,-17 -472,-21 19,-22 40,-44 61,-64l0 1zm2593 -205c20,-8 42,-17 62,-25 -14,15 -28,29 -43,44 -20,9 -40,20 -62,30 15,-16 31,-32 43,-48l0 -1zm17 -18c14,-16 29,-33 43,-51 22,-8 43,-16 65,-24 -14,16 -29,32 -43,47 -21,11 -43,19 -65,28zm119 -80c20,-8 40,-16 60,-25 -14,15 -28,29 -40,42 -20,9 -40,19 -62,28 14,-13 28,-29 42,-45zm17 -19c11,-13 22,-25 33,-38 3,-4 6,-7 10,-12 22,-8 42,-15 63,-23 -14,16 -28,31 -42,45 -22,9 -43,19 -65,27l1 1zm119 -77c20,-8 40,-16 60,-24 -14,15 -26,28 -40,41 -20,9 -39,19 -59,27 12,-15 25,-29 39,-44zm76 -89c15,-17 29,-36 43,-54 22,-7 43,-13 65,-20 -14,17 -29,33 -44,51 -20,7 -42,15 -63,23l-1 0zm122 -80c20,-7 42,-15 62,-21 -14,15 -26,29 -40,44l-1 1c-20,8 -42,17 -62,25 12,-16 28,-32 41,-49zm99 -50c14,-16 28,-32 42,-48 20,-7 40,-13 61,-20 -14,15 -28,31 -42,45 -20,7 -40,15 -60,23l-1 0zm121 -76c19,-7 39,-15 58,-21 -13,13 -26,26 -39,40 -19,8 -39,17 -57,25 12,-15 25,-29 39,-44l-1 0zm103 -55c14,-15 26,-29 40,-44 19,-7 37,-13 56,-20 -14,13 -27,26 -41,40 -19,9 -37,16 -56,24l1 0zm-22 9c-20,8 -40,16 -60,23 14,-16 28,-32 42,-48 20,-7 40,-13 62,-20 -15,15 -29,29 -43,45l-1 0zm-79 29c-22,8 -43,15 -63,23 14,-17 29,-35 43,-52 22,-7 43,-13 65,-20 -15,16 -29,33 -44,50l-1 -1zm-79 28c-23,8 -45,15 -68,22 15,-19 29,-38 43,-56 23,-5 46,-12 68,-19 -12,17 -27,36 -43,54l0 -1zm-79 25c-23,7 -46,14 -69,20 15,-20 29,-40 42,-59 2,0 2,0 3,0 23,-5 45,-11 68,-17 -15,19 -29,38 -44,56zm-80 24c-25,7 -48,14 -72,19 15,-22 29,-42 44,-63 25,-5 49,-11 73,-16 -15,20 -30,40 -44,61l-1 -1zm-81 21c-2,0 -2,0 0,0 -25,5 -49,12 -74,18 15,-22 29,-45 44,-66 25,-4 49,-10 76,-15 -17,22 -32,43 -45,63l-1 0zm-14 19c-15,20 -29,40 -44,61 -25,7 -48,14 -72,21 15,-22 29,-42 44,-63 25,-7 49,-12 72,-18l0 -1zm-123 81c-451,114 -926,119 -1386,122 -205,3 -417,4 -623,15 -133,7 -262,18 -387,33 26,-15 53,-32 81,-47 167,-26 342,-46 525,-59 202,-14 407,-19 608,-24 406,-11 825,-20 1227,-107 -15,24 -30,45 -45,66l0 1zm-2008 153c206,-11 418,-14 623,-15 456,-5 927,-9 1375,-120 -15,20 -29,40 -44,61 -25,7 -51,14 -75,21 -473,124 -974,121 -1458,119 -210,-1 -426,-2 -637,8 -95,4 -189,10 -281,18 27,-18 54,-36 82,-54 133,-15 271,-28 415,-36l0 -2zm-219 85c211,-10 427,-8 637,-8 486,2 988,4 1463,-120 20,-5 39,-10 59,-16 -15,19 -29,39 -44,58 -50,17 -101,32 -152,46 -495,133 -1021,124 -1531,115 -213,-4 -435,-7 -650,-1 -56,2 -111,5 -167,8 25,-21 54,-40 82,-61 99,-8 200,-15 303,-20l0 -1zm-432 97c-27,21 -54,43 -79,67 -44,1 -88,3 -130,6 27,-21 55,-42 85,-63 41,-4 83,-7 124,-9l0 -1zm-255 86c-27,22 -53,44 -80,68 -44,1 -89,2 -132,4 28,-22 56,-43 86,-64 41,-4 83,-6 126,-8zm-257 84c-28,22 -55,46 -82,70 -45,1 -91,2 -136,4 28,-22 58,-43 88,-64 44,-5 86,-7 130,-10zm-258 85c-18,15 -37,30 -55,46 -10,7 -18,16 -28,25 -47,1 -92,2 -139,3 30,-22 59,-45 89,-66 45,-5 89,-8 133,-8zm-259 101c8,-7 17,-13 25,-19 47,-1 94,-2 141,-3 -28,25 -55,50 -83,77 -50,0 -98,-2 -147,0 21,-18 42,-36 63,-53l1 -2zm191 -23c48,-1 97,-1 145,1 -27,26 -52,54 -78,82 -35,-1 -69,-3 -104,-4 -16,-1 -31,-1 -47,0 28,-28 56,-53 84,-78l0 -1zm170 -1c4,0 7,0 12,1 46,0 91,2 137,4 -25,28 -48,57 -72,87 -52,-3 -103,-6 -156,-7 25,-30 51,-57 79,-85zm172 5c51,1 103,4 154,7 -23,29 -45,59 -67,91 -53,-4 -107,-7 -160,-9 23,-32 48,-61 73,-89zm178 7c116,6 234,12 347,20 609,37 1241,77 1832,-95 147,-43 291,-97 429,-164 -14,13 -28,26 -40,40 -166,89 -342,162 -525,215 -614,180 -1273,133 -1909,88 -68,-5 -135,-9 -205,-14 25,-29 47,-59 70,-90l1 0zm2178 -83c-590,170 -1220,132 -1830,93 -112,-7 -227,-14 -341,-19 23,-29 47,-58 73,-86 160,4 322,13 479,20 584,30 1189,61 1756,-99 121,-34 242,-78 357,-129 -14,15 -28,29 -43,44 -145,71 -296,131 -452,175l1 1zm507 -224c20,-9 39,-17 57,-27 -14,13 -26,26 -40,40 -19,11 -39,20 -57,29 14,-15 26,-28 40,-42zm73 -34c17,-8 34,-17 52,-25 -11,10 -22,22 -35,32 -17,11 -36,20 -54,31 12,-13 25,-26 38,-38l-1 0zm21 -21c14,-13 26,-28 40,-42 19,-8 37,-17 56,-25 -13,13 -27,25 -39,38 -19,9 -39,20 -57,29zm114 -75c17,-8 34,-16 50,-25 -13,10 -24,21 -36,32 -17,9 -33,18 -50,28 13,-12 25,-24 36,-35zm24 -23c12,-13 26,-26 39,-41 19,-8 37,-16 56,-25 -12,13 -27,25 -39,37 -20,11 -37,20 -56,29zm114 -74c16,-8 31,-16 47,-23 -11,10 -23,19 -32,29 -16,9 -33,18 -49,26 10,-9 21,-21 34,-32zm24 -23c13,-13 25,-25 38,-38 17,-8 36,-16 53,-24 -13,12 -24,23 -36,35 -19,8 -37,17 -54,26l-1 1zm57 -61c8,-9 17,-19 26,-28 6,-6 10,-12 15,-17 20,-8 39,-15 58,-22 -14,13 -26,28 -40,41 -19,9 -39,19 -59,27l0 -1zm118 -74c17,-8 36,-14 53,-22 -13,12 -25,24 -39,37 -17,9 -34,17 -53,25 14,-13 27,-26 39,-40zm76 -33c14,-6 30,-14 44,-20 -10,9 -21,19 -31,28 -16,8 -30,15 -46,25 11,-12 22,-22 32,-32l1 -1zm28 -26c4,-4 8,-9 14,-13 8,-9 15,-16 24,-25 17,-6 34,-14 52,-22 -13,12 -25,24 -36,35 -19,8 -36,16 -53,25l-1 0zm115 -73c14,-6 29,-13 43,-19 -11,9 -21,19 -32,28 -14,8 -29,15 -43,23 10,-10 21,-21 32,-32zm111 -67c10,-10 20,-19 31,-29 14,-6 29,-13 43,-19 -10,9 -20,18 -29,27 -16,8 -30,15 -44,22l-1 -1zm62 -59c13,-12 24,-25 35,-37 17,-6 33,-13 50,-19 -13,12 -24,22 -36,34 -16,8 -33,16 -49,22zm115 -67c14,-6 27,-11 42,-17 -8,7 -15,13 -24,21 -1,1 -4,3 -6,4 -14,8 -29,14 -43,20 10,-9 21,-19 31,-28zm236 -128c-3,2 -6,3 -9,5 -6,3 -11,6 -17,9 6,-6 13,-10 18,-16 9,-3 17,-6 24,-11 -6,4 -11,9 -17,13l1 0zm-77 39c-13,6 -27,13 -40,19 10,-9 21,-19 31,-28 13,-5 27,-11 40,-16 -11,9 -21,18 -31,25zm-77 36c-17,8 -33,14 -50,22 13,-12 25,-24 36,-37 17,-6 33,-13 50,-18 -13,12 -25,22 -36,32l0 1zm-80 35c-19,8 -37,16 -56,22 14,-15 26,-28 39,-42 19,-7 37,-13 56,-20 -11,13 -25,26 -39,40zm-79 32c-20,8 -40,16 -60,23 14,-16 28,-32 42,-48 20,-7 40,-13 61,-20 -12,16 -28,31 -42,45l-1 0zm-79 29c-22,8 -43,15 -65,23 14,-17 29,-35 43,-52 22,-7 43,-12 65,-19 -14,16 -29,32 -43,48zm-81 28c-22,7 -45,15 -68,22 15,-19 29,-38 44,-56 23,-5 45,-12 68,-19 -15,17 -29,36 -44,54l0 -1zm-81 25c-23,7 -46,14 -71,20 15,-20 29,-39 44,-59 23,-5 48,-11 71,-18 -15,19 -29,38 -44,56l0 1zm-83 22c-23,7 -48,12 -72,18 15,-20 29,-42 44,-63 25,-5 48,-11 73,-16 -13,23 -29,42 -44,62l-1 -1zm-81 21c-1,0 -3,0 -4,2 -23,5 -46,11 -70,16 15,-22 29,-43 42,-66 25,-4 51,-10 75,-15 -13,22 -29,43 -44,63l1 0zm-83 18c-25,5 -51,11 -76,15 13,-23 28,-46 42,-69 26,-4 51,-8 77,-14 -13,24 -28,46 -43,67l0 1zm-81 17c-359,68 -731,83 -1091,98 -195,8 -397,16 -593,33 -203,16 -396,42 -577,75 23,-11 47,-22 72,-33 223,-49 465,-87 725,-112 191,-19 387,-30 576,-42 307,-18 622,-37 930,-87 -14,23 -28,45 -42,67l0 1zm-1683 147c196,-16 398,-24 591,-33 357,-15 723,-30 1080,-96 -13,23 -29,45 -44,66 -405,88 -828,100 -1239,109 -199,5 -406,11 -608,24 -170,12 -332,29 -486,52 24,-14 50,-26 76,-39 198,-37 408,-65 630,-84l0 1zm-755 130c-29,4 -60,10 -89,14 21,-11 44,-22 67,-31 28,-6 57,-13 86,-18 -21,12 -43,24 -64,35zm-36 21c-24,14 -50,29 -74,44 -35,5 -69,9 -103,14 26,-14 51,-28 77,-42 35,-6 67,-12 100,-16l0 0zm-100 61c-27,17 -53,35 -78,53 -38,3 -76,7 -114,12 27,-17 56,-33 83,-49 35,-5 71,-11 109,-16zm-234 69c-34,5 -67,8 -101,12 27,-15 54,-29 83,-43 31,-6 61,-10 93,-16 -26,17 -51,32 -75,47zm-26 17c-27,18 -52,36 -78,54 -38,3 -76,7 -112,10 28,-17 57,-34 85,-50 35,-5 70,-9 105,-14zm-230 69c-36,5 -72,8 -106,13 27,-15 56,-29 83,-45 33,-6 67,-12 102,-17 -27,15 -53,32 -78,49l-1 0zm-23 14c-28,18 -55,36 -81,56 -39,3 -79,7 -118,10 28,-18 57,-35 87,-52 36,-5 74,-10 112,-14zm-237 71c-37,3 -72,8 -108,13 29,-15 57,-31 87,-46 33,-6 67,-11 100,-16 -27,17 -53,33 -80,50l1 -1zm-21 14c-28,18 -55,38 -84,57 -41,4 -80,7 -120,11 30,-18 60,-36 91,-53 36,-6 74,-11 112,-14l1 -1zm-237 69c-38,3 -76,8 -114,13 30,-17 60,-32 90,-48 35,-6 71,-11 106,-17 -28,18 -55,35 -82,52zm-20 14c-30,20 -58,38 -87,59 -42,2 -83,6 -124,9 30,-18 61,-37 93,-53 39,-6 79,-11 118,-15zm-243 71c-39,4 -79,8 -117,13 30,-17 61,-32 93,-48 36,-6 74,-11 111,-16 -30,14 -59,32 -87,50l0 1zm-19 11c-30,20 -60,39 -88,59 -42,2 -86,6 -129,10 31,-18 63,-37 94,-55 41,-5 82,-10 123,-13l0 -1zm-246 71c-41,4 -80,8 -121,12 31,-17 63,-34 94,-49 38,-6 76,-11 115,-16 -30,17 -60,35 -88,53zm-17 11c-31,20 -61,39 -91,60 -44,2 -88,6 -132,10 31,-20 64,-38 97,-56 42,-5 83,-10 125,-14l1 0zm-104 87c9,-6 18,-13 28,-20 45,-2 92,-5 139,-6 -30,24 -58,47 -87,73 -48,0 -97,1 -145,2 21,-18 42,-34 65,-49zm192 -27c47,-1 95,-2 144,-4 -28,25 -56,52 -83,78 -50,-2 -100,-2 -150,-2 28,-25 58,-49 89,-73l0 1zm166 -3c48,0 98,0 148,0 -27,26 -53,54 -78,83 -21,0 -41,-2 -62,-2 -31,-1 -62,-2 -93,-2 28,-28 56,-54 84,-79l1 0zm172 2c18,0 37,1 54,1 32,1 65,2 97,3 -24,26 -47,54 -69,81 -1,1 -3,4 -4,6 -53,-3 -106,-7 -157,-8 25,-29 51,-57 79,-83l0 0zm317 61c12,-16 25,-32 37,-48 54,3 107,7 162,9 -22,32 -42,63 -63,95 -56,-4 -112,-9 -169,-13 11,-13 22,-29 33,-43zm221 -35c71,5 140,9 209,14 636,45 1295,92 1912,-88 172,-51 340,-118 499,-201 -13,12 -25,24 -38,35 -187,108 -388,197 -596,259 -640,189 -1327,136 -1990,83 -19,-2 -38,-4 -58,-5 17,-34 39,-66 61,-96l1 -1zm2634 -285c0,0 2,0 0,0 17,-9 31,-17 47,-26 -11,9 -21,18 -32,27 -16,11 -33,20 -48,30 11,-10 22,-21 34,-31l-1 0zm24 -22c13,-12 25,-25 39,-38 17,-9 36,-17 53,-26 -4,3 -7,7 -11,10 -8,7 -18,16 -27,24 -18,11 -36,20 -54,31l0 -1zm85 -50c9,-7 17,-16 25,-24 14,-8 30,-15 44,-23 -10,9 -20,16 -30,25 -16,9 -30,18 -45,27 1,-3 3,-4 6,-6l0 1zm130 -93c10,-9 20,-18 31,-28 14,-8 27,-15 41,-22 -10,7 -20,16 -28,24 -16,9 -30,18 -44,26zm165 -124c13,-6 26,-14 39,-20 -6,4 -10,9 -15,13 -4,3 -7,6 -11,9 -14,8 -27,17 -41,24 11,-9 20,-18 29,-27l-1 1zm111 -72c8,-7 18,-16 27,-24 12,-6 24,-12 36,-19 -8,7 -17,13 -25,21 -13,8 -26,15 -37,21l-1 1zm56 -52c11,-10 22,-21 32,-32 16,-8 32,-14 46,-22 -11,10 -21,19 -32,28 -14,9 -30,18 -46,26zm107 -67c11,-6 23,-11 34,-17 -7,6 -14,12 -23,18 -11,8 -23,14 -36,21 8,-9 17,-16 24,-22l1 0zm74 -39c3,-2 7,-3 10,-6 0,0 -1,0 -1,1 -4,3 -8,6 -14,9 3,-2 4,-3 6,-4l-1 0zm43 -38c8,-7 15,-15 24,-21 10,-5 20,-9 32,-16 -7,6 -14,12 -23,18 -11,6 -23,12 -33,18l0 1zm97 -58c1,-1 3,-2 4,-3 -3,2 -4,3 -7,5 1,0 3,-2 3,-2zm46 -40c7,-7 16,-13 22,-21 10,-5 20,-9 30,-14 -7,6 -14,12 -21,16 -10,6 -21,12 -31,18l0 1zm100 -58c1,0 1,-1 3,-2 -1,0 -3,2 -3,2 -2,0 -2,0 0,0zm46 -41c3,-3 7,-6 10,-9 3,-3 7,-6 10,-9 9,-5 19,-8 27,-13 -7,5 -13,10 -20,15 -7,5 -17,11 -27,15l0 1zm479 -304c-9,5 -19,9 -27,14 6,-4 11,-10 17,-15 9,-3 17,-6 26,-11 -4,4 -10,9 -16,12zm-82 40c-13,6 -27,13 -40,19 10,-9 20,-18 29,-27 14,-5 27,-11 40,-16 -10,7 -20,15 -30,24l1 0zm-80 36c-16,6 -33,14 -49,21 13,-12 25,-24 36,-37 17,-6 33,-11 49,-18 -11,12 -24,22 -36,34zm-79 32c-19,8 -37,16 -58,22 14,-15 28,-28 40,-42 19,-7 37,-13 56,-18 -13,13 -25,26 -39,38l1 0zm-82 32c-20,8 -40,15 -61,21 14,-16 28,-32 42,-48 20,-7 42,-12 62,-19 -14,16 -28,31 -43,45l0 1zm-81 29c-22,7 -43,15 -65,22 15,-17 29,-35 43,-52 22,-5 43,-12 65,-19 -14,16 -29,32 -43,49zm-82 27c-22,7 -45,13 -68,20 15,-19 29,-38 44,-56 23,-5 46,-12 68,-17 -14,17 -29,35 -44,54l0 -1zm-82 24c-23,7 -46,12 -69,19 15,-20 29,-39 44,-59 23,-5 48,-11 71,-16 -15,19 -30,38 -45,57l-1 -1zm-165 43c-3,0 -7,2 -10,2 -22,5 -42,9 -64,15 15,-22 29,-43 42,-65 25,-4 49,-10 76,-14 -15,20 -29,40 -44,62zm-84 18c-25,5 -51,10 -75,15 13,-23 28,-45 42,-67 26,-4 52,-8 77,-14 -13,23 -28,45 -44,66zm-83 17c-26,4 -52,10 -79,14 14,-23 27,-46 40,-69 26,-4 52,-8 79,-13 -14,22 -27,44 -41,67l1 1zm-84 14c-311,51 -632,71 -942,89 -190,12 -386,23 -576,42 -231,22 -446,54 -648,96 16,-6 30,-13 46,-19 249,-63 523,-112 822,-146 185,-21 377,-37 561,-51 257,-21 520,-42 780,-79 -15,23 -28,46 -42,69l-1 -1zm-2258 245c-6,2 -13,3 -19,4 9,-2 17,-5 25,-7 -1,1 -3,2 -6,3zm-120 58c-22,4 -44,8 -65,13 19,-8 37,-16 56,-24 20,-5 41,-10 61,-16 -17,9 -34,18 -51,26l-1 1zm-215 63c-16,8 -33,16 -49,25 -19,4 -39,8 -58,11 17,-8 36,-16 55,-22 17,-5 35,-10 52,-14zm51 -28c12,-5 22,-8 33,-11 -7,3 -13,6 -20,9 -4,0 -9,0 -13,2zm-144 76c-23,12 -44,25 -67,37 -28,4 -55,9 -83,13 24,-12 49,-23 73,-34 26,-6 51,-11 77,-15l0 -1zm-208 60c-25,4 -48,9 -71,14 19,-8 39,-16 59,-25 23,-5 45,-11 68,-16 -19,9 -37,19 -56,28l0 -1zm-41 22c-24,12 -49,26 -71,40 -31,4 -63,9 -93,15 26,-12 52,-25 77,-36 29,-7 58,-13 87,-19zm-220 64c-23,4 -45,8 -68,12 23,-10 46,-19 70,-29 20,-5 39,-9 59,-14 -22,9 -42,20 -62,31l1 0zm-37 19c-24,14 -50,26 -73,40 -31,4 -61,9 -90,13 27,-13 53,-25 82,-38 25,-4 52,-10 81,-15zm-217 63c-26,4 -52,10 -79,14 23,-10 47,-21 72,-30 25,-5 49,-11 73,-16 -23,11 -44,22 -66,33l0 -1zm-36 19c-27,14 -53,28 -78,43 -34,5 -67,9 -99,15 27,-14 56,-27 85,-39 30,-7 61,-13 93,-19l-1 0zm-227 65c-29,4 -57,10 -84,14 24,-11 50,-21 76,-32 26,-6 52,-12 78,-18 -24,14 -47,25 -70,36zm-33 17c-27,14 -54,29 -81,45 -35,5 -70,9 -103,15 29,-14 57,-28 87,-41 32,-7 65,-13 97,-19l0 0zm-230 66c-31,4 -60,10 -90,16 27,-11 53,-22 80,-33 28,-6 55,-13 83,-18 -24,11 -49,23 -73,36l0 -1zm-30 15c-29,15 -57,31 -84,46 -36,5 -71,9 -108,14 30,-14 60,-28 90,-42 33,-6 67,-12 102,-18zm-234 67c-32,4 -64,10 -96,16 29,-13 56,-24 85,-35 29,-7 60,-13 90,-19 -26,12 -53,25 -79,37l0 1zm-29 15c-30,15 -59,31 -87,48 -38,5 -76,10 -112,14 31,-16 62,-30 95,-44 33,-7 70,-13 105,-18l-1 0zm-107 57c-31,18 -61,37 -91,55 -42,4 -83,7 -126,12 33,-17 64,-34 99,-51 38,-5 77,-11 118,-16zm-249 72c-39,5 -77,10 -117,15 31,-16 65,-30 98,-44 36,-6 73,-12 111,-18 -32,14 -62,31 -91,48l-1 -1zm-19 9c-31,18 -64,37 -94,56 -44,4 -86,7 -129,12 33,-18 67,-35 102,-51 39,-6 80,-13 121,-18l0 1zm-253 72c-41,5 -82,10 -121,15 33,-16 67,-31 102,-46 38,-6 76,-12 115,-19 -34,16 -64,33 -96,49l0 1zm-72 52c27,-17 56,-32 84,-47 44,-5 88,-9 131,-13 -3,2 -6,3 -9,5 -30,18 -58,38 -87,57 -47,2 -94,5 -139,9 7,-3 13,-6 19,-11l1 0zm216 -45c10,-6 18,-12 28,-17 45,-4 91,-6 137,-9 -31,22 -62,45 -92,67 -48,1 -97,2 -144,5 21,-16 45,-32 70,-47l1 1zm191 -28c47,-3 94,-5 142,-6 -30,24 -59,48 -89,73 -50,0 -100,0 -148,1 30,-22 62,-45 95,-67l0 -1zm166 -6c48,-1 97,-2 147,-2 -30,25 -58,52 -84,78 -51,-1 -103,-1 -153,-3 28,-24 59,-49 90,-73zm169 -2c50,0 100,0 151,2 -24,23 -47,48 -71,73 -3,3 -7,7 -10,10 -6,0 -10,-1 -16,-1 -47,-2 -94,-3 -141,-5 28,-28 57,-54 87,-80l0 1zm91 85c26,-28 53,-56 81,-82 32,1 66,2 100,3 19,0 37,2 56,3 -10,10 -19,22 -29,32 -17,19 -32,38 -47,57 -55,-4 -107,-7 -162,-9 1,-3 1,-3 1,-3l0 -1zm221 -35c12,-15 25,-28 37,-42 53,3 106,5 159,8 -23,30 -47,61 -70,92 -56,-4 -110,-8 -166,-12 12,-15 26,-31 40,-47l0 1zm217 -32c55,4 109,7 163,11 -22,32 -44,63 -64,96 -56,-5 -113,-9 -171,-14 23,-30 47,-62 72,-93zm184 14c57,4 113,9 169,13 -20,33 -39,66 -58,99 -25,-3 -50,-4 -77,-7 -34,-2 -66,-6 -100,-9 22,-33 44,-65 65,-96l1 0zm192 15c21,2 41,3 62,5 665,53 1351,108 1993,-83 197,-59 388,-140 564,-241 -11,9 -23,19 -34,28 -206,130 -431,234 -667,305 -636,191 -1315,142 -1977,85 19,-34 38,-67 58,-99l1 0zm1921 21c220,-66 431,-160 625,-279 -8,7 -18,15 -27,21 -224,152 -472,271 -733,350 -610,185 -1260,152 -1898,94 17,-34 35,-70 52,-103 662,59 1342,107 1981,-83zm695 -330c8,-7 17,-15 25,-22 11,-6 21,-12 33,-20 -7,6 -14,10 -21,16 -13,9 -24,17 -37,26zm137 -100c7,-6 14,-12 21,-18 10,-6 20,-11 28,-17 -6,4 -13,9 -18,13 -10,7 -20,15 -31,21l0 1zm139 -99c6,-4 13,-10 18,-15 9,-5 16,-9 24,-14 -4,3 -8,7 -14,10 -10,6 -20,12 -28,18l0 1zm139 -99c4,-4 8,-7 13,-12 7,-5 14,-8 21,-12 -4,3 -7,6 -11,9 -7,5 -14,10 -23,15zm279 -197c3,-3 6,-4 8,-7 4,-3 9,-5 14,-8 -1,1 -3,2 -4,3 -7,5 -13,8 -18,12zm1030 -696c-6,3 -13,6 -19,9 -7,3 -14,6 -22,9 10,-9 21,-18 31,-27 13,-5 27,-10 40,-15 -10,6 -21,14 -31,22l1 2zm-82 35c-16,6 -32,13 -49,19 13,-12 24,-23 36,-35 17,-5 33,-11 49,-16 -11,10 -24,22 -36,32zm-82 32c-17,6 -36,13 -55,20 14,-15 28,-28 42,-42 19,-5 36,-12 55,-17 -14,13 -28,26 -42,40l0 -1zm-81 29c-20,7 -40,13 -62,21 14,-16 29,-32 43,-48 20,-5 42,-12 62,-17 -14,15 -29,29 -43,44zm-84 28c-22,7 -42,13 -64,20 15,-17 29,-35 43,-52 22,-5 43,-11 65,-17 -14,17 -29,33 -44,50l0 -1zm-84 25c-22,7 -45,13 -68,19 15,-19 29,-38 44,-56 23,-5 45,-11 68,-16 -14,19 -29,36 -44,54l0 -1zm-84 24c-23,7 -46,12 -70,18 15,-20 29,-39 44,-59 23,-5 48,-11 71,-16 -15,20 -30,39 -45,58l0 -1zm-168 42c-6,2 -13,3 -19,4 -19,4 -38,8 -55,11 15,-22 29,-43 42,-65 25,-4 51,-10 76,-15 -13,23 -29,45 -44,65zm-84 18c-25,5 -51,10 -77,15 14,-22 28,-45 42,-66 26,-4 52,-8 77,-14 -14,22 -29,43 -42,65zm-86 17c-26,4 -52,10 -78,14 13,-23 27,-46 40,-69 26,-4 54,-8 80,-13 -13,23 -27,44 -42,67l0 1zm-86 14c-26,4 -54,8 -80,13 13,-23 26,-46 39,-69 28,-4 54,-8 82,-11 -14,22 -27,44 -41,67zm-86 14c-264,39 -531,60 -793,81 -184,14 -376,30 -561,51 -249,29 -479,67 -694,116 7,-2 13,-5 19,-7 265,-75 562,-134 895,-178 181,-24 368,-42 547,-61 206,-21 416,-42 624,-71 -11,21 -24,46 -38,69l1 0zm-2810 495c-7,3 -13,6 -20,9 -12,2 -22,5 -33,7 4,-2 10,-3 14,-5 13,-3 26,-8 39,-12l0 1zm-256 82c-9,5 -17,8 -26,12 -9,2 -17,4 -25,5 13,-5 24,-10 37,-14 4,0 9,-2 13,-3l1 0zm-240 78c-13,6 -26,11 -40,17 -15,4 -29,6 -44,9 16,-6 30,-11 46,-16 12,-3 25,-7 38,-10zm-256 80c-14,6 -30,13 -44,20 -16,4 -33,7 -49,11 16,-6 33,-11 49,-18 14,-5 29,-8 45,-14l-1 1zm-257 82c-17,8 -33,14 -50,22 -19,4 -38,8 -57,11 19,-7 37,-13 56,-20 16,-5 33,-10 51,-14l0 1zm-257 79c-19,8 -37,16 -56,25 -22,4 -44,9 -67,13 20,-8 42,-15 62,-23 22,-5 42,-11 61,-16l0 1zm-263 81c-20,8 -42,17 -62,27 -23,4 -48,9 -71,14 23,-8 46,-16 69,-24 22,-5 42,-11 64,-16l0 -1zm-99 44c-27,13 -56,27 -83,39 -34,5 -67,11 -100,16 30,-13 59,-24 91,-37 30,-7 62,-13 93,-19l-1 1zm-232 64c-26,4 -52,10 -78,15 24,-10 50,-18 76,-26 23,-5 46,-12 70,-18 -23,10 -45,19 -67,29l-1 0zm-34 16c-30,14 -59,27 -87,41 -35,5 -70,11 -105,17 32,-13 63,-26 95,-38 32,-6 65,-13 97,-19l0 -1zm-239 65c-29,6 -57,10 -84,16 27,-10 55,-20 84,-28 26,-7 51,-12 77,-18 -26,10 -50,19 -76,30l-1 0zm-30 14c-30,14 -60,28 -90,42 -38,5 -74,11 -111,17 32,-13 65,-26 98,-38 33,-7 68,-15 103,-21zm-242 64c-32,6 -63,12 -94,18 29,-10 58,-20 87,-30 29,-7 58,-14 88,-21 -27,11 -55,22 -80,33l-1 0zm-30 13c-33,14 -65,28 -96,44 -39,5 -77,11 -117,16 34,-14 69,-27 105,-40 36,-6 73,-14 108,-20l0 0zm-249 66c-33,6 -66,10 -97,16 30,-10 61,-21 91,-31 30,-7 61,-14 91,-20 -29,13 -57,24 -85,35zm12 5c41,-6 82,-13 122,-18 -19,9 -37,19 -56,28 -16,8 -30,15 -46,23 -44,4 -88,9 -131,14 37,-17 73,-32 111,-48l0 1zm71 18c27,-14 54,-28 83,-40 42,-5 86,-10 130,-15 -1,0 -1,1 -3,2 -33,18 -66,37 -97,56 -47,4 -92,6 -137,11 9,-6 16,-11 24,-14zm215 -46c9,-5 17,-9 26,-14 45,-5 91,-9 136,-11 -33,20 -67,41 -98,63 -48,3 -95,5 -142,8 26,-15 53,-31 78,-46zm186 -27c47,-4 94,-6 140,-9 -33,23 -64,45 -95,69 -50,1 -98,2 -147,4 33,-23 67,-44 101,-64l1 0zm164 -10c48,-3 97,-4 145,-5 -31,24 -61,49 -90,74 -51,0 -101,0 -151,0 31,-22 64,-46 96,-69zm167 -5c50,-1 100,-1 150,-1 -24,21 -46,41 -69,63 -6,6 -11,12 -17,16 -53,-1 -104,-3 -156,-3 29,-27 60,-52 91,-76l1 1zm90 70c27,-25 53,-49 81,-72 51,0 103,1 154,3 -8,9 -17,16 -27,25 -20,19 -38,39 -57,60 -54,-3 -107,-5 -160,-7 4,-3 7,-6 8,-9l1 0zm220 -34c11,-12 24,-23 35,-35 49,2 97,3 146,6 3,0 7,1 12,1 -26,29 -53,60 -78,90 -50,-4 -102,-7 -152,-10 -4,0 -9,-1 -13,-1 18,-19 35,-35 50,-51zm214 -28c54,3 107,5 162,9 -25,30 -48,62 -71,94 -56,-5 -112,-9 -168,-13 25,-30 50,-61 78,-90l-1 0zm181 11c56,4 110,8 166,12 -22,32 -44,65 -64,98 -58,-5 -115,-11 -174,-16 23,-32 47,-64 71,-94l1 0zm187 14c58,5 115,9 171,14 -20,33 -39,67 -58,102 -12,-1 -24,-3 -37,-4 -47,-4 -94,-9 -142,-13 22,-34 42,-67 65,-99l1 0zm192 16c34,4 69,6 103,10 25,1 49,4 74,7 -19,34 -36,68 -52,103 -62,-5 -122,-12 -184,-18 20,-34 39,-69 59,-102zm1910 126c-584,180 -1202,161 -1814,105 14,-35 30,-71 47,-105 640,59 1290,92 1903,-95 234,-71 458,-174 662,-303 -241,174 -511,310 -798,398l0 0zm2945 -1852c-6,4 -11,8 -18,12 -9,3 -16,8 -24,11 6,-4 13,-10 18,-15 9,-3 17,-5 24,-8zm-69 25c-10,7 -20,15 -31,24 -13,5 -27,11 -40,16 10,-9 21,-18 31,-27 14,-5 27,-10 40,-13zm-75 23c-13,10 -25,22 -39,33 -16,6 -33,13 -49,18 13,-12 25,-24 38,-35 17,-5 33,-10 51,-15l-1 -1zm-79 24c-14,13 -28,26 -43,40 -19,7 -36,13 -55,20 14,-15 28,-28 42,-42 19,-5 38,-12 56,-17l0 -1zm-82 24c-15,15 -29,29 -45,44 -20,7 -39,13 -59,18 15,-16 29,-32 44,-48 20,-4 41,-9 59,-14l1 0zm-81 21c-15,16 -31,34 -46,50 -22,7 -43,13 -65,19 15,-17 30,-35 44,-52 22,-5 45,-11 67,-16l0 -1zm-86 20c-15,19 -30,36 -47,54 -22,7 -45,12 -67,19 15,-19 30,-38 44,-56 23,-5 46,-11 70,-16l0 -1zm-86 20c-15,19 -30,39 -45,58 -23,5 -46,12 -71,18 15,-20 30,-39 44,-59 25,-5 49,-11 73,-16l-1 -1zm-86 18c-15,20 -30,40 -45,61 -25,5 -48,11 -73,16 15,-20 29,-42 44,-62 25,-5 49,-10 74,-15zm-87 17c-15,22 -29,42 -44,62 -10,2 -20,4 -30,7 -14,4 -30,6 -45,9 15,-22 29,-43 42,-65 26,-4 51,-10 77,-14l0 1zm-87 16c-14,22 -29,43 -44,65 -26,6 -51,10 -77,15 14,-22 27,-44 42,-66 26,-4 52,-10 79,-14zm-89 16c-14,22 -27,44 -42,66 -26,4 -52,10 -79,14 14,-22 27,-44 41,-66 26,-6 52,-10 80,-14zm-89 14c-13,23 -27,44 -41,66 -26,4 -54,8 -80,13 14,-22 26,-44 38,-67 28,-3 55,-7 83,-11l0 -1zm-90 13c-12,23 -26,44 -38,67 -28,4 -55,8 -83,13 12,-23 24,-44 36,-67 29,-4 57,-9 84,-13l1 0zm-1092 146c179,-26 363,-50 541,-72 153,-19 306,-39 461,-61 -12,23 -24,44 -36,67 -213,29 -427,52 -637,73 -180,18 -367,36 -549,61 -219,28 -422,64 -611,106 236,-68 510,-128 832,-175l-1 1zm-3623 1054c-1,0 -3,2 -4,2 -1,0 -3,0 -4,2 1,-1 6,-3 9,-3l-1 -1zm-259 76c-6,2 -12,3 -16,6 -6,2 -13,3 -19,4 12,-3 23,-7 35,-10zm-262 75c-10,3 -20,7 -30,11 -10,2 -20,4 -31,6 20,-5 40,-12 61,-17zm-270 77c-11,5 -23,8 -35,13 -15,4 -29,6 -44,9 26,-8 52,-15 78,-22l1 0zm-261 71c-17,6 -35,12 -52,18 -19,4 -36,7 -55,11 35,-10 71,-19 107,-29l0 0zm-276 74c-20,7 -40,13 -59,20 -22,4 -44,8 -65,13 40,-12 82,-22 125,-33l-1 0zm-423 109c49,-14 98,-26 148,-37 -23,7 -46,15 -69,23 -26,4 -52,8 -79,14l0 0zm119 -22c35,-12 71,-22 105,-33 35,-7 70,-15 105,-21 -32,11 -65,23 -96,36l-1 0c-38,6 -76,12 -112,18l-1 0zm146 -23c37,-14 75,-28 112,-41 39,-8 79,-14 119,-20 -16,6 -32,13 -47,19 -19,8 -39,17 -57,25 -44,5 -86,12 -127,16l0 1zm194 -23c-15,2 -28,3 -42,5 12,-5 23,-11 34,-16 26,-11 52,-22 79,-32 42,-6 84,-13 127,-18 -34,17 -70,34 -104,51 -32,3 -63,6 -93,9l-1 1zm115 -12c30,-15 60,-31 92,-45 6,-3 12,-5 17,-8 44,-5 89,-10 134,-14 -34,18 -68,38 -103,57 -47,4 -94,6 -140,10l0 0zm162 -11c36,-20 71,-40 107,-58 47,-4 92,-8 140,-12 -34,20 -68,41 -101,64 -50,3 -98,4 -146,6l0 0zm167 -6c34,-23 68,-44 104,-64 48,-3 97,-7 145,-8 -33,23 -65,45 -96,69 -53,-1 -103,0 -152,3l-1 0zm170 -4c33,-24 65,-48 99,-70 50,-3 98,-4 148,-4 -23,16 -44,34 -65,52 -10,7 -18,15 -28,24 -51,-1 -103,-3 -154,-1l0 -1zm173 0c6,-4 11,-10 17,-15 25,-21 51,-42 78,-61 50,-1 101,-1 153,-1 -7,6 -13,12 -20,16 -24,21 -46,41 -69,63 -53,0 -106,-1 -159,-3l0 1zm178 4c20,-19 39,-37 60,-55 10,-9 20,-18 31,-27 51,0 104,1 157,3 -28,28 -57,56 -84,85 -57,-1 -112,-4 -165,-6l1 0zm246 13c-22,-2 -43,-3 -65,-3 28,-29 56,-58 85,-86 53,1 107,4 160,7 -26,29 -54,60 -79,90 -34,-1 -68,-5 -102,-7l1 -1zm121 9c26,-31 53,-61 80,-92 6,0 12,1 18,0 49,3 99,6 147,10 -25,30 -50,62 -73,95 -59,-4 -115,-9 -172,-14l0 1zm190 18c23,-33 48,-65 73,-95 56,4 113,9 169,13 -23,32 -45,66 -67,99 -58,-7 -117,-12 -176,-17l1 0zm195 19c22,-34 43,-67 67,-99 57,5 116,10 174,16 -20,33 -41,67 -59,103 -61,-6 -121,-13 -182,-19l0 -1zm201 21c19,-34 39,-69 61,-103 49,4 97,9 145,14 12,1 22,2 34,4 -19,34 -36,68 -53,104 -62,-6 -124,-13 -186,-19l-1 0z"/>
 </g>
</svg>
